<?xml version="1.0" encoding="UTF-8" standalone="no"?>
<!-- Created with Inkscape (http://www.inkscape.org/) -->

<svg
   xmlns:dc="http://purl.org/dc/elements/1.1/"
   xmlns:cc="http://creativecommons.org/ns#"
   xmlns:rdf="http://www.w3.org/1999/02/22-rdf-syntax-ns#"
   xmlns:svg="http://www.w3.org/2000/svg"
   xmlns="http://www.w3.org/2000/svg"
   xmlns:sodipodi="http://sodipodi.sourceforge.net/DTD/sodipodi-0.dtd"
   xmlns:inkscape="http://www.inkscape.org/namespaces/inkscape"
   width="73.159561mm"
   height="79.720261mm"
   viewBox="0 0 259.22679 282.47336"
   id="svg4764"
   version="1.1"
   inkscape:version="0.91 r13725"
   sodipodi:docname="gravestone.svg">
  <defs
     id="defs4766" />
  <sodipodi:namedview
     id="base"
     pagecolor="#ffffff"
     bordercolor="#666666"
     borderopacity="1.0"
     inkscape:pageopacity="0.0"
     inkscape:pageshadow="2"
     inkscape:zoom="0.7"
     inkscape:cx="176.20801"
     inkscape:cy="-64.548841"
     inkscape:document-units="px"
     inkscape:current-layer="layer1"
     showgrid="false"
     fit-margin-top="0"
     fit-margin-left="0"
     fit-margin-right="0"
     fit-margin-bottom="0"
     inkscape:window-width="1366"
     inkscape:window-height="705"
     inkscape:window-x="-8"
     inkscape:window-y="-8"
     inkscape:window-maximized="1" />
  <metadata
     id="metadata4769">
    <rdf:RDF>
      <cc:Work
         rdf:about="">
        <dc:format>image/svg+xml</dc:format>
        <dc:type
           rdf:resource="http://purl.org/dc/dcmitype/StillImage" />
        <dc:title></dc:title>
      </cc:Work>
    </rdf:RDF>
  </metadata>
  <g
     inkscape:label="Layer 1"
     inkscape:groupmode="layer"
     id="layer1"
     transform="translate(-117.64297,-495.41923)">
    <path
       style="fill:#000000"
       d="m 225.52344,495.42188 c -9.08867,-0.0352 -22.03549,0.28307 -26.48242,0.83007 -20.7686,2.5546 -29.67871,4.80821 -39.44141,9.97461 l -7.875,4.16602 -1.79492,7.5 c -0.9865,4.125 -2.07703,9.29207 -2.42383,11.48047 -0.3467,2.1884 -0.81366,4.27592 -1.03906,4.64062 -0.2254,0.3648 -0.62974,2.39959 -0.89844,4.52149 -0.2688,2.1218 -0.71293,4.98242 -0.98633,6.35742 -0.2734,1.375 -0.71401,4.525 -0.97851,7 -0.2644,2.475 -0.81035,7.425 -1.21485,11 -0.4045,3.575 -0.76197,7.5125 -0.79297,8.75 -0.0307,1.2375 -0.32851,2.25 -0.66211,2.25 -0.3335,0 -0.61972,1.2375 -0.63671,2.75 -0.0349,3.0291 -0.61584,6.6747 -1.55274,9.75 -0.3352,1.1 -0.85003,4.17322 -1.14453,6.82812 -0.2945,2.6549 -0.76036,5.19007 -1.03516,5.63477 -0.3962,0.641 -1.3821,17.29441 -1.9414,32.78711 -0.0447,1.2375 -0.36323,2.25 -0.70703,2.25 -1.3433,0 -1.85111,6.32604 -0.62891,7.83594 0.9944,1.233 0.9951,1.39477 0,0.79687 -0.6875,-0.413 -1.25,-0.31004 -1.25,0.22656 0,0.5367 0.5625,1.20112 1.25,1.47852 0.7998,0.3228 0.66646,0.53298 -0.36914,0.58398 -1.2751,0.0622 -1.74872,1.61623 -2.23242,7.32813 -0.3378,3.9875 -1.09545,9.95 -1.68555,13.25 -0.5902,3.3 -1.27308,8.25 -1.51758,11 -0.2445,2.75 -0.89486,7.025 -1.44336,9.5 -0.5485,2.475 -1.17468,6.60353 -1.39258,9.17383 -0.2179,2.5703 -0.66488,5.10728 -0.99218,5.63671 -0.6157,0.99622 -2.01608,18.45826 -2.08008,25.93946 -0.0201,2.3375 -0.48711,4.25562 -1.03711,4.26562 -0.55,0.008 -0.325,0.45118 0.5,0.98438 1,0.6462 1.0833,0.97633 0.25,0.98633 -0.6875,0.008 -1.25,0.82445 -1.25,1.81445 0,0.99 -0.47012,2.2709 -1.04492,2.8457 -0.93355,0.93355 -1.5076,5.86535 -1.31055,8.56641 0.14645,0.49484 0.29641,1.07392 0.44727,1.72851 0.0466,0.0345 0.0947,0.0586 0.14843,0.0586 0.483,0 0.59967,0.45 0.25977,1 -0.0603,0.0975 -0.0841,0.18612 -0.11133,0.27539 0.0341,0.17136 0.0692,0.39969 0.10352,0.58008 0.10323,0.0896 0.25195,0.14453 0.44922,0.14453 0.5824,0 1.05859,-1.08682 1.05859,-2.41602 0,-1.3291 0.45436,-2.5687 1.00977,-2.7539 1.89879,-0.6329 3.82053,-15.27409 3.92773,-29.92969 0.0346,-4.7304 0.50783,-9.9054 1.05273,-11.5 1.0159,-2.9728 3.76986,-22.05015 4.44336,-30.78125 0.2072,-2.6854 0.75816,-5.1604 1.22266,-5.5 1.1474,-0.8388 1.42096,-2.38373 1.88086,-10.58203 0.217,-3.8697 0.44672,-7.03711 0.51172,-7.03711 0.0646,0 0.25779,-0.9 0.42968,-2 0.1719,-1.1 1.00777,-5.825 1.85547,-10.5 0.9043,-4.987 1.44535,-12.8396 1.31055,-19 -0.1263,-5.775 0.0838,-12.3 0.4668,-14.5 0.383,-2.2 0.98178,-5.8 1.33008,-8 0.9595,-6.0608 1.14083,-6.86675 1.92773,-8.59375 0.3998,-0.8774 0.50894,-2.7899 0.24414,-4.25 -0.2647,-1.4601 -0.0536,-2.65625 0.46875,-2.65625 0.5223,0 0.85478,-1.24915 0.73828,-2.77735 -0.1164,-1.5283 0.12777,-3.3283 0.54297,-4 0.4317,-0.6986 0.24992,-1.22265 -0.42578,-1.22265 -0.8316,0 -0.77655,-0.48749 0.18945,-1.65039 0.7548,-0.9087 1.46247,-3.4962 1.57227,-5.75 0.5615,-11.5205 3.71313,-33.41959 5.89453,-40.96289 0.7737,-2.6757 1.40625,-5.74341 1.40625,-6.81641 0,-2.8518 1.83982,-5.82031 3.60742,-5.82031 0.8452,0 3.41695,-1.08531 5.71485,-2.41211 5.65949,-3.2678 19.16833,-7.01886 29.17773,-8.10156 0.55,-0.0595 3.7,-0.46921 7,-0.91211 5.9906,-0.804 19.5499,-0.86311 37.5,-0.16211 11.8757,0.4639 30.8631,2.99094 46,6.12304 1.375,0.2845 3.625,0.92277 5,1.41797 1.375,0.4952 4.975,1.43329 8,2.08399 13.9783,3.007 31.96881,11.39041 42.07031,19.60351 l 5.97852,4.85938 -0.56641,5 c -0.3118,2.75 -0.80576,7.25 -1.09765,10 -0.2919,2.75 -1.12933,7.25 -1.86133,10 -0.732,2.75 -1.69182,8.15 -2.13282,12 -0.441,3.85 -0.85587,7.45 -0.92187,8 -0.0658,0.55 -0.89329,3.475 -1.83789,6.5 -1.8194,5.8264 -2.23166,8.40298 -3.10156,19.33008 -0.299,3.7564 -0.93085,7.5814 -1.40235,8.5 -0.4661,0.9185 -0.68004,2.1565 -0.46484,2.75 0.2152,0.5935 -1.42027,10.17386 -3.63477,21.28906 -2.2145,11.1152 -4.02734,22.58428 -4.02734,25.48828 0,2.9039 -0.71227,7.68209 -1.58399,10.61719 -1.58929,5.3517 -1.90147,6.86059 -4.85937,23.52539 -1.7894,10.0814 -2.42885,13.8479 -2.96875,17.5 -0.2033,1.375 -1.02638,6.55 -1.83008,11.5 -0.8036,4.95 -1.37277,13.5 -1.26367,19 0.1616,8.1491 -0.26096,11.5385 -2.28516,18.3125 -1.9075,6.3836 -2.21018,8.58669 -1.30468,9.49219 0.9056,0.9056 1.37181,0.86753 2.01171,-0.16797 0.64171,-1.0382 1.008,-1.06906 1.5879,-0.13086 0.4205,0.6804 0.1444,1.60439 -0.625,2.09179 -0.758,0.4801 -0.90563,0.87868 -0.32813,0.88868 1.7664,0.0257 3.44922,-2.26115 3.44922,-4.68555 0,-3.0712 1.62296,-2.93728 2.41016,0.19922 0.6795,2.7074 2.58984,3.4449 2.58984,1 0,-0.825 0.43605,-1.5 0.96875,-1.5 0.5327,0 0.70757,0.68052 0.38867,1.51172 -0.415,1.0815 -0.12175,1.33693 1.03125,0.89453 0.8862,-0.3401 1.61133,-1.21732 1.61133,-1.94922 0,-0.732 0.86974,-1.26555 1.93164,-1.18555 1.0619,0.08 1.70885,0.5017 1.43945,0.9375 -0.9782,1.5827 0.74928,2.93662 2.20508,1.72852 1.5626,-1.2969 4.42383,-0.5904 4.42383,1.0918 0,0.59978 -0.44458,0.81451 -0.98828,0.47851 -0.5434,-0.336 -0.75568,-0.002 -0.47071,0.74023 0.414,1.07881 -1.44751,1.33983 -9.26171,1.29883 -5.3787,-0.0279 -10.97094,0.24392 -12.42774,0.60352 -1.5242,0.3762 -3.17848,0.16435 -3.89648,-0.49805 -0.9636,-0.8889 -1.0635,-0.82882 -0.4375,0.26758 0.6295,1.1025 0.38258,1.24492 -1.10352,0.63672 -3.6627,-1.4991 -5.41406,-1.78386 -5.41406,-0.88086 0,0.4998 -1.35522,0.89114 -3.01172,0.86914 -1.7723,-0.0236 -2.83699,-0.49338 -2.58789,-1.14258 0.2937,-0.7654 -2.76508,-1.06642 -9.98828,-0.98242 -6.4771,0.0751 -10.41774,-0.26619 -10.42774,-0.90039 -0.009,-0.588 -0.3263,-0.53591 -0.75,0.12109 -0.5376,0.8337 -1.0577,0.79059 -1.9414,-0.16211 -0.9488,-1.0228 -0.88855,-1.56816 0.28125,-2.53906 1.2117,-1.0056 1.7461,-0.88179 2.875,0.66211 1.3116,1.7938 1.42393,1.73384 2.05273,-1.10156 1.2727,-5.7391 1.49161,-6.1238 2.53711,-4.4707 0.512,0.80957 0.93531,2.43663 0.94531,3.61523 0.016,2.2414 2.54093,3.93257 3.51563,2.35547 0.3102,-0.502 1.29756,-0.63081 2.19336,-0.28711 1.3343,0.5121 1.49316,0.18853 0.88476,-1.79297 -0.8722,-2.8408 -1.37814,-5.66894 -1.49414,-8.33594 -0.1259,-2.8973 -1.31005,-1.08775 -2.06445,3.15625 l -0.66797,3.75977 -1.33398,-4.25 c -1.195,-3.807 -3.01758,-5.7893 -3.01758,-3.2832 0,1.59059 -6.09832,8.0332 -7.60352,8.0332 -1.6685,0 -1.82892,-3.32069 -0.29882,-6.17969 0.866,-1.6183 0.8133,-1.95647 -0.25,-1.60547 -0.7409,0.2445 -1.90264,1.53364 -2.58204,2.86524 -0.7802,1.5293 -1.28514,1.86742 -1.36914,0.91992 -0.179,-2.0167 -0.14746,-2.23651 0.61524,-4.19531 0.5364,-1.3783 0.12772,-1.65461 -2.17578,-1.47071 -2.6743,0.2135 -2.83571,0.49185 -2.84571,4.87305 -0.005,2.5558 -0.3165,4.95332 -0.6914,5.32812 -1.0476,1.0476 -3.90905,-6.61261 -3.24805,-8.69531 0.4408,-1.3888 0.0673,-1.83984 -1.52734,-1.83984 -1.1611,0 -2.03822,0.5625 -1.94922,1.25 0.535,4.1196 -0.20222,7.75 -1.57422,7.75 -0.825,0 -1.5,-0.675 -1.5,-1.5 0,-0.825 -0.35486,-1.5 -0.78906,-1.5 -0.4342,0 -0.772,-1.19355 -0.75,-2.65235 0.0217,-1.4588 -0.52344,-2.84503 -1.21094,-3.08203 -0.8345,-0.2877 -1.25563,0.67715 -1.26563,2.90235 -0.0261,5.6678 -1.6523,6.777 -2.9375,2.0039 -0.7123,-2.645 -1.697,-4.17187 -2.6914,-4.17187 -0.982,0 -1.35384,0.56087 -0.99414,1.49804 0.3159,0.82331 -0.50246,3.6209 -1.81836,6.2168 -1.3159,2.5959 -2.1744,5.07115 -1.9082,5.50196 0.26629,0.43079 -0.21868,0.7832 -1.07618,0.7832 -0.8574,0 -1.59372,0.5625 -1.63672,1.25 -0.0627,0.9896 -0.18343,0.98853 -0.58593,-0.01 -0.2785,-0.6908 -0.86559,-1.03312 -1.30469,-0.76172 -0.4392,0.2714 -0.56374,-2.42614 -0.27734,-5.99414 0.3036,-3.783 0.12456,-6.48631 -0.42774,-6.48633 -0.5208,10e-6 -2.3762,1.39773 -4.125,3.10743 -2.6457,2.5867 -3.28443,2.83834 -3.79883,1.49804 -0.3402,-0.886 -0.35169,-2.84817 -0.0254,-4.35937 0.528,-2.4447 0.45868,-2.54141 -0.64062,-0.87891 -0.6796,1.0277 -1.99041,2.8277 -2.91211,4 -1.6551,2.1053 -1.68295,2.10832 -2.33985,0.13281 -1.2066,-3.62899 -2.81,-6.5 -3.6289,-6.5 -0.4435,0 -0.36648,1.15366 0.16992,2.56446 1.9148,5.0365 0.33947,13.43558 -2.51953,13.43554 -0.6451,0 -1.17188,0.69518 -1.17188,1.54688 l 0.004,0.004 c 0,1.3674 3.323,1.51811 28.4707,1.29101 21.3458,-0.1928 28.78548,-0.57258 29.73438,-1.52148 1.0209,-1.0209 1.37563,-0.98217 1.83203,0.20703 0.4854,1.2651 6.24676,1.47461 40.59766,1.47461 26.0209,0 40.03125,-0.35 40.03125,-1 0,-0.55 -0.48297,-1 -1.07227,-1 -0.5892,0 -1.77883,-0.70852 -2.64453,-1.57422 -1.2543,-1.2543 -1.7372,-1.30944 -2.375,-0.27734 -2.5974,4.2026 -3.23758,-7.73534 -0.70508,-13.14844 2.229,-4.7644 2.60232,-6.4029 3.29102,-14.4668 0.3274,-3.8325 1.05729,-9.0075 1.62109,-11.5 0.5638,-2.4926 1.21266,-6.72906 1.44336,-9.41406 0.2569,-2.9898 1.05886,-5.34979 2.06836,-6.08789 0.27962,-0.20446 0.51682,-0.46084 0.71094,-0.73633 l 0.37695,-2.16016 c -0.15738,-0.86674 0.0435,-2.40343 0.5,-3.63476 0.10935,-0.29493 0.22699,-0.73238 0.34375,-1.20313 l 0.90625,-5.1914 c 0.0656,-0.52899 0.13458,-1.06286 0.18164,-1.57227 0.2779,-3.0074 0.79198,-5.9327 1.14258,-6.5 0.061,-0.099 0.10731,-0.26711 0.15625,-0.42578 l 0.21875,-1.24805 c 0.0511,-0.63074 0.0549,-1.33748 -0.0156,-2.00976 -0.153,-1.4583 0.24808,-2.9767 0.89258,-3.375 0.032,-0.0198 0.0426,-0.0354 0.0723,-0.0547 l 0.20508,-1.17969 c -0.0934,-0.0735 -0.16361,-0.14345 -0.29493,-0.22461 -0.40921,-0.25291 -0.17818,-0.44377 0.42969,-0.54687 l 0.47656,-2.73242 c -0.26525,-0.61829 -0.56576,-1.46675 -0.875,-2.54493 -0.6111,-2.1307 -0.52953,-3.19859 0.26368,-3.46289 0.63069,-0.2103 1.04402,-1.61122 0.91992,-3.11132 -0.1434,-1.7321 0.16731,-2.4842 0.84961,-2.0625 0.31842,0.19679 0.5155,0.69714 0.58789,1.31445 l 0.83398,-4.6543 c -1.52442,-0.14349 -2.08281,-1.10535 -2.05469,-3.21484 0.0219,-1.65 0.37927,-3 0.79297,-3 0.4137,0 0.75196,-1.125 0.75196,-2.5 0,-1.375 0.47609,-2.5 1.05859,-2.5 0.582,0 0.8509,-0.3371 0.5957,-0.75 -0.2553,-0.4129 0.11314,-3.6754 0.82031,-7.25 0.70721,-3.5746 1.3402,-5.9375 1.40626,-5.25 0.0514,0.5385 0.38276,0.99113 0.79687,1.16601 l 0.33789,-1.88281 c -0.007,-0.0126 -0.009,-0.0204 -0.0156,-0.0332 -0.633,-1.1829 -0.68215,-2 -0.11914,-2 0.15084,0 0.31201,0.0577 0.47265,0.14062 l 0.13867,-0.77148 c -0.0205,-0.009 -0.0378,-0.0233 -0.0586,-0.0312 -1.1881,-0.4559 -1.42045,-1.47335 -0.96875,-4.21875 0.3273,-1.9898 0.79797,-5.19414 1.04687,-7.11914 0.2489,-1.925 1.13475,-7.325 1.96875,-12 0.8341,-4.675 1.51678,-10.20115 1.51758,-12.28125 7e-4,-2.0802 0.60023,-5.2302 1.33203,-7 0.7319,-1.7699 1.43023,-5.78704 1.55079,-8.92774 0.1206,-3.1407 0.38348,-6.5157 0.58398,-7.5 0.4768,-2.3397 3.02053,-13.96061 4.99023,-22.79101 0.8587,-3.85 1.81254,-10.27329 2.11914,-14.27539 0.5451,-7.1161 0.48072,-7.3806 -2.92968,-12 -1.918,-2.5979 -4.46576,-5.39961 -5.66016,-6.22461 -1.1945,-0.825 -3.09757,-2.2875 -4.23047,-3.25 -1.1328,-0.9625 -2.35665,-1.75 -2.71875,-1.75 -0.3622,0 -1.64395,-0.91756 -2.84765,-2.03906 -1.2037,-1.1214 -2.1875,-1.78813 -2.1875,-1.48243 0,0.3057 -2.3625,-0.64718 -5.25,-2.11718 -5.6524,-2.8776 -23.2058,-9.35423 -33.75,-12.45313 -3.575,-1.0507 -8.75,-2.59353 -11.5,-3.42773 -2.75,-0.8343 -6.575,-1.565 -8.5,-1.625 -1.925,-0.0601 -7.55,-0.7058 -12.5,-1.4336 -4.95,-0.7278 -13.95,-1.55403 -20,-1.83593 -6.05,-0.2819 -12.125,-0.73728 -13.5,-1.01368 -1.375,-0.2764 -5.53399,-0.63081 -9.24219,-0.78711 -3.7081,-0.1562 -6.74196,-0.51015 -6.75195,-0.78515 -0.006,-0.30158 -4.07024,-0.44956 -9.52344,-0.4707 z m 103.09765,18.92187 c 0.0773,-0.0155 0.175,-0.0156 0.29297,0.002 0.1573,0.0235 0.34781,0.0767 0.57032,0.16211 0.8536,0.3276 1.55273,0.77208 1.55273,0.98828 0,0.8099 -1.90489,0.3545 -2.49219,-0.5957 -0.19704,-0.31888 -0.15558,-0.51017 0.0762,-0.55664 z m 15.17188,8.16406 c 0.29376,-0.0401 0.75191,0.11841 1.41015,0.47071 1.0083,0.5396 1.83399,1.09462 1.83399,1.23242 0,0.1378 -0.82565,0.25 -1.83399,0.25 -1.00828,0 -1.83203,-0.55492 -1.83203,-1.23242 0,-0.44225 0.12812,-0.68057 0.42188,-0.72071 z m 13.7793,6.7793 c 0.10159,-0.0242 0.1945,-7.8e-4 0.27148,0.0762 0.3079,0.3079 -1.9e-4,1.11457 -0.68359,1.79297 -0.9876,0.9802 -1.1013,0.86465 -0.5586,-0.56055 0.28163,-0.73965 0.66593,-1.23612 0.97071,-1.30859 z m 4.23828,3.60156 c 0.8578,0 1.37183,0.12746 1.14257,0.28321 -0.22919,0.1556 -1.21435,0.89537 -2.18945,1.64257 -1.5434,1.1827 -1.69098,1.1459 -1.14258,-0.2832 0.3465,-0.9028 1.33166,-1.64258 2.18946,-1.64258 z m -10.03516,7.94922 c 0.29766,-0.0324 0.64032,0.0974 0.99414,0.45117 0.33,0.33 0.0196,0.59961 -0.68945,0.59961 -1.0414,0 -1.04554,0.29389 -0.0234,1.52539 0.6957,0.8383 1.0707,1.71643 0.83398,1.95313 -0.23669,0.2367 -0.96569,-0.42706 -1.62109,-1.47657 -0.87007,-1.39319 -0.38711,-2.9556 0.50586,-3.05273 z m 10.50781,0.54688 c 0.27995,-0.0202 0.92242,0.43206 1.54297,1.10546 0.7091,0.7695 0.8478,1.39844 0.3086,1.39844 -1.0385,0 -2.54047,-1.90134 -1.94727,-2.46484 0.0241,-0.0229 0.0557,-0.0362 0.0957,-0.0391 z m 8,2 c 0.27995,-0.0202 0.92242,0.43206 1.54297,1.10546 0.7091,0.7695 0.8478,1.39844 0.3086,1.39844 -1.0385,0 -2.54047,-1.90134 -1.94727,-2.46484 0.0241,-0.0229 0.0557,-0.0362 0.0957,-0.0391 z m -9.68945,0.14648 c 0.24056,0.008 0.24009,0.40949 0.17969,1.21094 -0.0712,0.9451 -0.9418,1.71875 -1.9336,1.71875 -0.9919,0 -1.80273,-0.0275 -1.80273,-0.0625 0,-0.035 0.87059,-0.80855 1.93359,-1.71875 0.90145,-0.7721 1.38249,-1.15685 1.62305,-1.14844 z m 4.02734,1.37305 c 2.0783,-0.0294 2.40878,1.33649 0.76368,3.15429 -2.01,2.2211 -3.34766,2.35228 -3.34766,0.33008 0,-0.8844 0.9235,-1.50562 2.25,-1.51562 1.8195,-0.0124 1.963,-0.20048 0.75,-0.98438 -0.825,-0.5332 -1.01192,-0.97437 -0.41602,-0.98437 z m 7.41602,1.98437 c 1.1649,0 1.8399,0.45 1.5,1 -0.3399,0.55 -1.0149,1 -1.5,1 -0.4851,0 -1.1601,-0.45 -1.5,-1 -0.3399,-0.55 0.3351,-1 1.5,-1 z m -23.58399,1.45508 c 0.23179,0.0465 0.27328,0.23776 0.0762,0.55664 -0.336,0.5437 -1.03328,0.98828 -1.55078,0.98828 -1.4384,0 -1.12118,-0.71606 0.61132,-1.38086 0.22248,-0.0854 0.41302,-0.13866 0.57032,-0.16211 0.11797,-0.0176 0.21574,-0.0174 0.29296,-0.002 z m 18.57032,0.54492 c 0.6195,0 0.84966,0.45 0.50976,1 -0.34,0.55 -0.14099,1 0.44141,1 0.5825,0 1.05859,-0.54499 1.05859,-1.21289 0,-0.7859 0.56969,-0.64516 1.61719,0.40234 1.6833,1.6832 1.14182,3.86943 -0.92578,3.73243 -0.8587,-0.057 -0.84271,-0.22029 0.0586,-0.58399 0.6875,-0.2774 1.25,-0.93158 1.25,-1.45508 0,-0.5586 -0.83919,-0.50408 -2.02929,0.13282 -1.1154,0.5969 -1.76903,1.50267 -1.45313,2.01367 0.3158,0.511 0.058,1.89261 -0.57226,3.07031 -0.9303,1.7384 -0.89073,1.98978 0.20507,1.33008 0.9784,-0.589 0.93962,-0.31103 -0.13671,1.01367 -0.81672,1.0051 -1.49001,2.55546 -1.5,3.44336 -0.01,1.0155 -0.70209,1.49648 -1.86719,1.29688 -1.5786,-0.2705 -1.6525,-0.10177 -0.5,1.14453 0.7438,0.8043 1.74094,1.22725 2.21484,0.93945 1.7426,-1.0578 2.50461,2.10908 0.81641,3.39258 -1.5544,1.1819 -1.54482,1.27859 0.14258,1.30859 1.6905,0.0295 1.70288,0.15064 0.17578,1.67774 -1.2028,1.2028 -1.32599,1.8416 -0.46289,2.375 0.9076,0.5583 0.90866,0.89947 0.01,1.45507 -0.6481,0.3993 -0.93397,1.3556 -0.63867,2.125 0.2952,0.7693 0.11511,1.39844 -0.40039,1.39844 -0.5155,0 -0.67793,0.675 -0.36133,1.5 l -0.004,0 c 0.317,0.825 0.30271,1.5 -0.0313,1.5 -0.6046,0 -0.97417,-1.75302 -0.70117,-3.32422 0.0787,-0.453 -0.42976,-0.46089 -1.13086,-0.0176 -0.7011,0.4432 -2.57205,0.87589 -4.15625,0.96289 -1.7317,0.095 -2.37769,-0.15155 -1.62109,-0.61915 0.7448,-0.46028 0.93258,-1.33462 0.45898,-2.14062 -0.44,-0.749 0.10369,-0.57052 1.20899,0.39648 1.922,1.6815 2.08585,1.67499 3.75195,-0.16601 1.3431,-1.4842 1.50106,-2.37371 0.69336,-3.88281 -0.8277,-1.5466 -0.63488,-2.33119 0.91992,-3.73828 1.0823,-0.97952 1.96875,-2.23823 1.96875,-2.79883 0,-0.5606 -1.13137,0.0433 -2.51367,1.34179 -2.004,1.8827 -2.7639,2.10874 -3.75,1.11524 -0.9841,-0.9915 -0.91148,-1.12378 0.35352,-0.64258 0.907,0.345 2.1955,-0.13845 3,-1.12695 1.2324,-1.5142 1.21088,-1.65923 -0.16602,-1.14453 -2.1134,0.7899 -1.86437,-2.1291 0.48633,-5.7168 0.989,-1.5094 1.28706,-2.42807 0.66406,-2.04297 -1.1463,0.7084 -6.02464,-3.19986 -6.05664,-4.85156 -0.01,-0.4928 1.10742,0.31903 2.48242,1.80273 l 2.5,2.69727 0.11719,-2.30078 c 0.065,-1.2658 0.0556,-2.67356 -0.0234,-3.12696 -0.0787,-0.4534 0.39368,-0.49203 1.05078,-0.0859 0.8335,0.5151 0.98536,0.19319 0.50196,-1.06641 -0.6094,-1.5881 -0.49179,-1.63888 0.97461,-0.42188 1.4906,1.2371 1.59135,1.14533 0.95508,-0.85937 -0.44971,-1.4171 -0.29784,-2.24219 0.41406,-2.24219 z m -6.32227,0.67383 c 0.10515,0.0256 0.22844,0.15121 0.36914,0.37891 0.4304,0.6963 0.55058,1.87002 0.26758,2.60742 -0.7634,1.9894 -1.05078,1.64387 -1.05078,-1.26563 0,-1.04168 0.10963,-1.62241 0.31445,-1.71289 0.0307,-0.0136 0.0646,-0.0163 0.0996,-0.008 z m -10.62695,0.0352 c 0.32746,-0.0443 0.53512,0.42584 0.53516,1.30664 -10e-6,2.2722 -0.18676,2.41983 -1.12696,0.89843 -0.3696,-0.598 -0.26764,-1.49212 0.22656,-1.98632 0.13285,-0.13288 0.25609,-0.20401 0.36524,-0.21875 z m 5.33203,1.39453 c 0.13625,0.0482 0.38356,0.26328 0.75391,0.63086 0.6834,0.6784 0.99149,1.48507 0.68359,1.79297 -0.3079,0.3078 -0.86669,-0.24818 -1.24219,-1.23438 -0.33918,-0.89075 -0.42239,-1.26986 -0.19531,-1.18945 z m 10.57227,2.89648 c -0.5825,0 -0.78131,0.45 -0.44141,1 0.3399,0.55 0.81609,1 1.05859,1 0.2426,0 0.44141,-0.45 0.44141,-1 0,-0.55 -0.47609,-1 -1.05859,-1 z m -14.20899,0.33399 c 0.78604,0.0481 0.90219,0.27389 0.29297,0.65039 -0.7048,0.4356 -0.97165,1.29279 -0.59375,1.90429 1.0453,1.6913 0.0731,1.32723 -1.70508,-0.63867 -1.4673,-1.6221 -1.39465,-1.75974 0.99805,-1.90234 0.40905,-0.0243 0.7458,-0.0297 1.00781,-0.0137 z m 6.64063,4.14257 c 0.47755,0.0126 0.94568,0.23025 1.25,0.72266 0.4157,0.6726 0.23035,0.82855 -0.46875,0.39649 -1.0719,-0.66251 -1.54892,0.72313 -1.42579,4.14453 0.0245,0.681 -0.35389,0.993 -0.84179,0.6914 -0.4879,-0.3015 -0.88672,-0.0988 -0.88672,0.45117 0,0.55 0.48086,1.29706 1.06836,1.66016 0.5874,0.3631 0.84175,1.24714 0.56641,1.96484 -0.27541,0.7177 0.37656,2.09751 1.44726,3.06641 1.1902,1.0771 1.72149,2.47149 1.36719,3.58789 -0.4577,1.4421 -0.19933,1.68233 1.23437,1.14453 1.5965,-0.5988 1.65026,-0.47794 0.44336,1.00586 l 0,0.004 c -1.6523,2.0313 -1.26305,2.12463 -3.41015,-0.82617 -1.4491,-1.9916 -1.4959,-2.33933 -0.25,-1.86133 0.8429,0.321 1.5332,0.31783 1.5332,-0.01 0,-1.012 -3.3936,-4.61914 -4.3457,-4.61914 -0.4951,0 -0.339,0.675 0.3457,1.5 0.8601,1.0364 0.89855,1.5 0.12305,1.5 -1.0257,0 -1.54229,-1.3496 -1.24219,-3.25 0.1745,-1.1053 -1.66246,-0.9124 -2.38086,0.25 -0.3399,0.55 -1.15359,0.99438 -1.80859,0.98438 -0.7512,-0.01 -0.66342,-0.34932 0.23828,-0.91993 0.7862,-0.49759 1.54695,-1.69882 1.68945,-2.66992 0.3216,-2.1908 -3.27997,-5.46191 -5.20117,-4.72461 -2.1776,0.8356 -1.68287,2.2134 0.58203,1.6211 2.1428,-0.5603 2.7601,1.12147 0.8457,2.30469 -0.7153,0.44209 -0.8834,0.27389 -0.4414,-0.44141 0.3925,-0.635 0.28537,-1.1543 -0.23829,-1.1543 -1.47599,0 -2.20117,2.81389 -0.85937,3.33399 0.6566,0.2545 0.21543,0.41542 -0.98047,0.35742 -1.7376,-0.0841 -1.98905,-0.45083 -1.25195,-1.82813 0.6464,-1.2077 0.45136,-2.19307 -0.64844,-3.29297 -1.4259,-1.4259 -1.36642,-1.57031 0.64258,-1.57031 1.2161,0 2.80836,-0.7875 3.53906,-1.75 1.2457,-1.641 1.331,-1.6254 1.375,0.25 0.0399,1.6938 0.21305,1.7704 1.12695,0.5 0.9328,-1.2967 1.0087,-1.27859 0.5625,0.12891 -0.2839,0.8955 -0.0466,2.09787 0.52735,2.67187 1.1887,1.1887 3.80078,0.49223 3.80078,-1.01367 0,-0.55 -0.6992,-0.7319 -1.55273,-0.4043 -0.94491,0.3624 -1.29584,0.18021 -0.89844,-0.46289 0.3592,-0.5812 1.33346,-0.79536 2.16406,-0.47656 1.023,0.3923 1.33214,0.11759 0.96094,-0.84961 -0.45471,-1.18497 0.6486,-2.14482 1.69922,-2.11719 z m -11.81446,0.52344 c 0.2426,0 0.44141,0.45 0.44141,1 0,0.55 -0.47609,1 -1.05859,1 -0.5825,0 -0.78131,-0.45 -0.44141,-1 0.3399,-0.55 0.81609,-1 1.05859,-1 z m 12.80469,5.34571 c 0.0909,0.0138 0.20061,0.16765 0.32031,0.46679 0.2888,0.7219 0.25224,1.58567 -0.0801,1.91797 -0.3323,0.3323 -0.56839,-0.2584 -0.52539,-1.3125 0.03,-0.72812 0.13361,-1.09527 0.28516,-1.07226 z m -4.94141,1.01171 c -0.29846,0.0104 -0.49073,0.38044 -0.77343,1.11719 -0.3439,0.8962 -0.21273,1.37315 0.29297,1.06055 0.5057,-0.3125 1.22174,-0.0799 1.58984,0.51562 0.368,0.5956 0.93509,0.81689 1.25976,0.49219 0.32471,-0.3247 -0.11024,-1.28993 -0.96484,-2.14453 -0.70245,-0.70235 -1.10583,-1.05142 -1.4043,-1.04102 z m -9.23242,5.00782 c 0.30108,-0.0248 0.25684,0.0833 -0.16601,0.29297 -1.7629,0.87427 -1.11554,2.31468 0.72656,1.61718 1.6508,-0.6249 1.65327,-0.56425 0.043,1.06055 -0.97,0.9788 -1.43773,2.42667 -1.08203,3.35351 0.5204,1.35632 0.76834,1.24999 1.46484,-0.63281 0.5666,-1.5316 1.35621,-2.06489 2.44141,-1.64843 1.1635,0.4465 1.44076,0.18408 1.00586,-0.94922 -0.366,-0.9542 -0.18777,-1.30866 0.45703,-0.91016 0.5809,0.3592 0.81473,1.28333 0.51953,2.05273 -0.6108,1.5916 0.95949,1.92084 1.90039,0.39844 0.3399,-0.55 1.07396,-1 1.63086,-1 0.5568,0 0.25754,0.75428 -0.66406,1.67578 -1.3493,1.3494 -2.04074,1.4467 -3.55664,0.5 -2.7172,-1.6969 -3.45615,-1.44538 -1.68555,0.57422 l -0.002,0 c 1.3881,1.5832 1.3502,1.93958 -0.4043,3.73828 -1.6232,1.6641 -1.82979,1.7048 -1.27149,0.25 0.6615,-1.724 -0.21217,-2.17055 -3.54687,-1.81445 -1.3333,0.1424 -1.3333,0.0452 0,-0.86719 1.2818,-0.8771 0.8752,-1.38781 -1,-1.25781 -0.275,0.0191 -0.56744,-1.07679 -0.64844,-2.43359 -0.1371,-2.2957 -0.0499,-2.34162 1.23828,-0.66602 1.2897,1.6777 1.36729,1.63851 1.14649,-0.58789 -0.1304,-1.3143 0.33591,-2.51888 1.03711,-2.67578 0.17532,-0.0392 0.31565,-0.062 0.41601,-0.0703 z m 9.95703,6.16015 c 0.30471,0.0335 0.51953,0.41893 0.51953,1.01953 10e-6,1.6862 -0.31434,1.83379 -1.12304,0.52539 -0.3164,-0.512 -0.19386,-1.16823 0.27344,-1.45703 0.11685,-0.0722 0.2285,-0.0991 0.33007,-0.0879 z m -3.76953,3.47461 c 0.5872,0 0.0597,0.70576 -1.17187,1.56836 -1.2316,0.8627 -1.97871,1.9877 -1.66211,2.5 0.6658,1.0773 0.10359,1.24607 -0.87891,0.26367 -0.8088,-0.8089 2.21069,-4.33203 3.71289,-4.33203 z m -11.54492,1.44531 c 0.0679,0.01 0.14252,0.0384 0.22266,0.0879 0.5649,0.3491 0.75247,1.49698 0.41797,2.55078 -0.805,2.5362 0.29107,2.43127 2.45117,-0.23633 1.3771,-1.7007 1.74224,-1.81592 1.74218,-0.54492 0,0.8851 -0.37373,1.379 -0.83203,1.0957 -0.4584,-0.2833 -0.83398,-0.0395 -0.83398,0.54297 0,0.5824 0.50565,1.05859 1.12305,1.05859 0.768,0 0.72222,0.48144 -0.14258,1.52344 -1.0489,1.2639 -1.0005,1.42219 0.2832,0.92969 1.2198,-0.4681 1.50007,0.0787 1.32617,2.58984 -0.1255,1.8132 0.45441,3.86543 1.34571,4.76563 1.422,1.436 1.39132,1.51382 -0.33008,0.86132 -1.2079,-0.4578 -2.5671,-0.10956 -3.75,0.96094 -1.0434,0.9442 -1.85547,1.18844 -1.85547,0.55664 0,-0.6533 -0.7325,-0.85005 -1.75,-0.46875 -1.571,0.5888 -1.60091,0.47248 -0.28711,-1.14062 0.8767,-1.0765 1.61238,-1.3522 1.83398,-0.6875 0.2034,0.6104 0.76691,1.10937 1.25391,1.10937 0.4869,0 0.59925,-0.74886 0.24805,-1.66406 -0.4637,-1.2083 -0.27616,-1.4401 0.68554,-0.8457 0.8626,0.5331 1.08578,0.43248 0.63868,-0.29102 -0.3776,-0.6105 -1.34885,-0.85873 -2.15625,-0.54883 -0.8074,0.3098 -1.4668,0.0658 -1.4668,-0.54297 0,-0.6089 -0.43605,-1.10742 -0.96875,-1.10742 -0.5327,0 -0.6872,0.7875 -0.3418,1.75 0.3676,1.0245 0.25115,1.40567 -0.28125,0.91797 -0.5001,-0.4581 -0.93008,-1.91242 -0.95508,-3.23242 l -0.0449,-2.40039 2.29492,2.15625 c 1.4388,1.3517 2.29688,1.67383 2.29688,0.86133 0,-1.0394 0.2978,-1.05044 1.5,-0.0527 2.1004,1.7431 1.81184,-0.0466 -0.44336,-2.75 -2.2007,-2.6379 -3.53753,-2.94482 -2.64063,-0.60742 0.54341,1.4162 0.40645,1.45406 -1.00195,0.28516 -0.8979,-0.7452 -1.19595,-1.50109 -0.66015,-1.67969 0.5353,-0.1786 0.8179,-1.67914 0.625,-3.33594 -0.19163,-1.64544 -0.022,-2.53555 0.45312,-2.4668 z m 20.60938,0.80469 c 1.8893,0 2.15206,0.26997 1.23046,1.26367 -0.7592,0.8186 -1.39734,0.90675 -1.81054,0.24805 -0.7286,-1.1616 -2.86133,-0.15163 -2.86133,1.35547 0,0.55 0.5194,0.67951 1.1543,0.28711 0.6804,-0.4205 0.88369,-0.27554 0.49609,0.35156 -0.8358,1.3524 0.23954,4.24414 1.57812,4.24414 0.63872,0 0.60255,-0.4981 -0.0976,-1.34179 -0.6126,-0.73812 -0.82129,-1.63585 -0.46289,-1.99415 0.3584,-0.3584 1.2861,0.25368 2.06054,1.35938 0.77441,1.1057 1.89675,1.70709 2.49415,1.33789 0.6701,-0.4141 0.79627,-0.20167 0.33007,0.55273 -0.4156,0.6725 -1.30305,1.01276 -1.97265,0.75586 -0.8281,-0.3178 -1.21034,0.75643 -1.19531,3.36329 0.0214,3.65569 1.52855,4.6868 1.69335,1.1582 0.0511,-1.0941 0.26211,-1.23874 0.59571,-0.4082 0.2836,0.706 -0.0615,1.97777 -0.76563,2.82617 -1.0484,1.2632 -1.01935,1.70727 0.15625,2.45117 1.1499,0.7274 1.16473,0.91183 0.0781,0.92383 -0.7805,0.009 -1.11787,0.63956 -0.79297,1.48633 0.3105,0.80898 -0.16389,2.20099 -1.05469,3.09179 -1.373,1.373 -1.40403,1.75597 -0.20703,2.51367 0.9032,0.5718 0.9825,0.89821 0.2207,0.90821 -0.655,0.008 -1.50517,-0.49268 -1.88867,-1.11328 -0.4764,-0.7708 -0.98778,-0.60989 -1.61328,0.50781 -0.9854,1.7609 -0.31235,3.62109 1.31055,3.62109 0.55,0 0.67961,-0.51934 0.28711,-1.15429 -0.4562,-0.73831 -0.27214,-0.88164 0.50976,-0.39844 0.6729,0.4157 0.98075,1.38489 0.68555,2.15429 -0.2953,0.7693 -0.11511,1.39844 0.40039,1.39844 0.5155,0 0.67783,0.675 0.36133,1.5 -0.3166,0.825 -1.23186,1.5 -2.03516,1.5 -0.9839,0 -1.26321,0.62522 -0.85351,1.91602 0.3345,1.0538 0.14076,2.20479 -0.43165,2.55859 -0.5724,0.3537 -1.03539,1.17899 -1.02539,1.83399 0.01,0.733 0.42328,0.6146 1.07618,-0.3086 0.8628,-1.2196 0.98797,-1.2317 0.67187,-0.0625 -0.2137,0.7906 -0.88167,1.60184 -1.48437,1.80274 -1.4051,0.4684 -2.59426,-1.42236 -1.75196,-2.78516 0.3548,-0.5741 0.0844,-1.71682 -0.59961,-2.54102 -0.9771,-1.177 -0.98314,-1.75853 -0.0273,-2.70703 0.9532,-0.946 1.07268,-0.82793 0.55078,0.54297 -0.3664,0.9625 -0.21601,1.75 0.33399,1.75 1.873,0 2.23366,-3.05566 0.44726,-3.78906 -0.9534,-0.3914 -1.73242,-1.38594 -1.73242,-2.21094 0,-0.8703 -0.90706,-1.5 -2.16016,-1.5 -1.1879,0 -3.0441,-1.01736 -4.125,-2.25976 l -1.96484,-2.25782 0,2.61524 c 0,1.9385 0.24627,2.26526 0.95117,1.25976 0.7696,-1.0979 0.87242,-1.07122 0.54102,0.14258 -0.5607,2.054 -3.27339,1.90423 -3.11719,-0.17187 0.0778,-1.0338 -0.3988,-1.46918 -1.25,-1.14258 -2.5783,0.9894 -1.33071,-1.17895 2.12109,-3.68555 3.6349,-2.6395 4.05246,-4.62036 0.91016,-4.32226 -1.0328,0.098 -2.18108,-0.31011 -2.55078,-0.90821 -0.8422,-1.3628 0.0245,-3.76953 1.35742,-3.76953 0.5499,0 0.77731,0.58242 0.50391,1.29492 -0.3022,0.7874 0.3357,1.36004 1.6289,1.45703 1.508,0.11361 1.73786,-0.083 0.78516,-0.67187 -0.8949,-0.553 -0.98895,-1.04893 -0.28125,-1.48633 0.5847,-0.3614 0.79088,-1.4301 0.45898,-2.375 -0.4742,-1.3499 -0.33063,-1.46722 0.66797,-0.54492 1.943,1.7944 4.24315,-0.5967 2.37305,-2.4668 -0.7424,-0.7424 -1.34594,-1.88109 -1.33594,-2.52929 0.0107,-0.8214 0.26228,-0.78935 0.83008,0.10547 0.4676,0.7366 1.63403,1.01697 2.73633,0.65624 1.375,-0.44979 1.5438,-0.35938 0.5957,0.32032 -1.0685,0.7659 -0.972,1.30456 0.5,2.78906 1.5098,1.5226 1.54301,1.73246 0.19531,1.22266 -2.0652,-0.7812 -3.87402,0.97131 -3.19922,3.09961 0.4462,1.4075 0.3703,1.4256 -0.5625,0.1289 -0.5935,-0.825 -1.12092,-1.275 -1.16992,-1 -0.0493,0.275 -0.28539,1.56273 -0.52539,2.86133 -0.3112,1.6839 -0.0478,2.2116 0.91602,1.8418 0.7433,-0.2852 1.95551,-0.1447 2.69531,0.3125 1.0613,0.6559 1.09047,1.13941 0.13477,2.29101 -0.9637,1.1611 -0.91149,1.57519 0.26171,2.02539 1.0428,0.4001 1.31591,0.0687 0.93164,-1.13281 -0.4644,-1.4519 -0.38431,-1.48102 0.55079,-0.19922 0.9113,1.2491 1.24261,1.27192 1.97461,0.13672 0.742,-1.1508 0.95448,-1.1508 1.36328,0 0.2662,0.7497 0.8153,1.05559 1.2207,0.67969 1.232,-1.1425 -0.5197,-2.93414 -2.3125,-2.36524 -0.9793,0.3109 -2.14558,-0.21316 -2.79688,-1.25586 -0.92139,-1.4755 -0.78249,-1.81344 0.78711,-1.93164 1.1456,-0.0863 1.63357,0.29268 1.22657,0.95118 -0.3874,0.6269 -0.21892,0.80998 0.39648,0.42968 0.5906,-0.365 1.75389,0.0157 2.58399,0.84571 2.0282,2.0285 2.36226,1.90956 2.06835,-0.74024 -0.1372,-1.2375 -0.28798,-2.5875 -0.33398,-3 -0.0459,-0.4125 -0.51808,-0.75 -1.05078,-0.75 -0.5327,0 -0.67305,0.7724 -0.31055,1.7168 0.5783,1.5073 0.47104,1.5421 -0.88086,0.2793 -1.293,-1.2078 -1.3245,-1.65587 -0.1914,-2.78907 1.9194,-1.9194 1.67071,-2.44888 -0.58399,-1.24218 -3.0054,1.6085 -3.58813,1.22329 -1.23633,-0.81641 1.1742,-1.0184 1.8194,-2.16697 1.4336,-2.55273 -0.3857,-0.3855 0.18438,-0.36804 1.26758,0.0391 1.7214,0.6468 1.80298,0.53403 0.64648,-0.88867 -0.7277,-0.8953 -2.0777,-1.386 -3,-1.0918 -1.4354,0.4579 -1.45978,0.37878 -0.17578,-0.54492 1.3973,-1.0051 0.70518,-1.57608 -1.41992,-1.17188 -0.5056,0.0962 -0.39622,-0.45345 0.24219,-1.22265 0.6383,-0.7691 0.87409,-1.68461 0.52539,-2.03321 -1.1279,-1.128 1.62075,-3.43164 4.09375,-3.43164 z m -5.10352,0.13086 c 0.27028,0.007 0.29909,0.40086 0.043,1.06836 -0.6648,1.7324 -1.38086,2.04778 -1.38086,0.60938 0,-0.5175 0.44458,-1.21479 0.98828,-1.55079 0.1417,-0.0876 0.25952,-0.12921 0.34961,-0.12695 z m -5.03516,1.06055 c 0.40478,-0.0469 1.31763,0.58726 2.19141,1.55273 2.1264,2.3496 1.78216,2.53018 -0.92187,0.48438 -1.0598,-0.8018 -1.69426,-1.69051 -1.41016,-1.97461 0.0355,-0.0355 0.0828,-0.0558 0.14062,-0.0625 z m 13.90821,0.63281 c 0.12954,0.004 0.23747,0.0422 0.31445,0.11914 0.3079,0.3079 -0.24622,0.86669 -1.23242,1.24219 -1.4252,0.5427 -1.54085,0.42902 -0.56055,-0.5586 0.50873,-0.51255 1.08989,-0.81416 1.47852,-0.80273 z m -17.59961,1.26953 c 0.11953,0.0201 0.25117,0.0713 0.38867,0.15625 0.55,0.3399 1,0.8161 1,1.0586 0,0.2426 -0.45,0.4414 -1,0.4414 -0.55,0 -1,-0.47619 -1,-1.05859 0,-0.43688 0.25273,-0.65795 0.61133,-0.59766 z m 1.72656,3.03711 c 0.27028,0.007 0.29909,0.40086 0.043,1.06836 -0.3276,0.8535 -0.1457,1.55078 0.4043,1.55078 0.55,0 1.24818,0.6451 1.55078,1.4336 0.3701,0.9645 -0.0852,1.38504 -1.39258,1.28711 -2.0752,-0.1564 -2.79368,-4.0766 -0.95508,-5.2129 0.1417,-0.0876 0.25952,-0.12921 0.34961,-0.12695 z m -8.16992,10.83594 c 0.5726,-0.0132 0.77176,0.14215 0.17187,0.5332 -0.8307,0.5416 -0.6182,1.42368 0.75,3.11328 1.0501,1.2961 1.91016,1.88514 1.91016,1.30664 0,-0.5785 -0.45,-1.33002 -1,-1.66992 -1.2607,-0.7794 -1.30846,-2.5 -0.0684,-2.5 0.5129,0 1.23291,0.94616 1.59961,2.10156 0.4851,1.5285 0.96668,1.8008 1.76758,1 2.3074,-2.3075 2.93453,-0.97876 0.67383,1.42774 -1.307,1.3912 -2.87984,2.33736 -3.49415,2.10156 -0.6887,-0.2642 -1.09454,0.82726 -1.06054,2.84766 0.0332,1.96 0.4984,3.10671 1.1582,2.85351 0.6067,-0.2328 1.67655,0.26733 2.37695,1.11133 0.7005,0.844 1.66704,1.29164 2.14844,0.99414 0.4814,-0.2976 0.6502,0.0456 0.375,0.76172 -0.2752,0.716 -1.61978,1.36631 -2.98828,1.44531 -2.5012,0.145 -3.37299,-1.03902 -1.46289,-1.98632 0.5638,-0.2797 0.4513,-0.38001 -0.25,-0.22461 -0.7012,0.1555 -1.20991,1.04245 -1.12891,1.97265 0.0809,0.9303 -0.3691,1.50831 -1,1.2832 -0.6309,-0.22509 -1.04858,-1.31728 -0.92968,-2.42578 0.1189,-1.1084 -0.6686,-2.81437 -1.75,-3.79296 -1.0814,-0.97871 -1.9668,-1.30883 -1.9668,-0.73243 0,0.5764 0.72145,1.32567 1.60351,1.66407 0.99771,0.3827 1.36566,1.23751 0.97266,2.26171 -0.3839,1.0004 0.23081,2.56669 1.56641,3.98829 1.2094,1.2873 1.87135,2.66575 1.47265,3.06445 -0.3988,0.3987 -1.14259,0.063 -1.65429,-0.74609 -0.5117,-0.809 -0.93532,-0.97722 -0.94532,-0.375 -0.008,0.6023 0.961,1.95229 2.1543,3 1.9477,1.71019 2.10415,1.72539 1.53125,0.15429 -0.3765,-1.0324 -0.1601,-1.75 0.5293,-1.75 0.8745,0 0.86625,-0.30172 -0.0312,-1.19922 -1.6928,-1.6928 -1.49794,-3.29247 0.22656,-1.86133 1.5512,1.2877 1.50802,5.16546 -0.0801,7.25196 -0.5481,0.7201 -0.87627,2.54609 -0.73047,4.05859 0.1458,1.5125 -0.15868,2.75 -0.67578,2.75 -0.9118,0 -1.30788,-1.35369 -1.05078,-3.58789 0.0689,-0.5989 -0.79828,-1.92501 -1.92578,-2.94531 -2.0011,-1.8109 -2.03472,-1.80786 -1.38672,0.0898 0.4484,1.3129 -0.41777,0.83063 -2.67187,-1.48437 -1.9202,-1.9721 -2.84544,-3.59196 -2.17774,-3.81446 0.6386,-0.2128 0.93004,-0.9868 0.64844,-1.7207 -0.7669,-1.9985 1.47097,-2.89765 3.41797,-1.37305 1.5076,1.1806 1.55925,1.1473 0.43945,-0.28711 -0.6967,-0.89269 -0.99255,-2.4677 -0.65625,-3.5 0.5047,-1.5487 0.4237,-1.61485 -0.4668,-0.37695 -0.5935,0.825 -1.13893,1.05 -1.21093,0.5 -0.4218,-3.2287 -0.34367,-4.1231 0.45703,-5.25 0.5852,-0.8235 0.41982,-1.25562 -0.48438,-1.26562 -1.0793,-0.0121 -1.05069,-0.2257 0.12891,-1 1.3333,-0.8753 1.3333,-1.10543 0,-2.07813 -1.2702,-0.9267 -1.2319,-1.00795 0.25,-0.53125 1.9673,0.6329 2.30481,-0.4199 0.66211,-2.0625 -0.7828,-0.7829 -0.7128,-1.31942 0.25,-1.91992 1.05987,-0.661 3.05153,-1.15376 4.00586,-1.17578 z m -2.94531,1.29101 c -0.14889,-0.002 -0.29582,0.0379 -0.4336,0.12305 -0.6161,0.3808 -0.48078,0.94992 0.35352,1.47852 1.8208,1.1537 1.8833,1.12328 1.2207,-0.60352 -0.23655,-0.6165 -0.69397,-0.99249 -1.14062,-0.99805 z m 13.91992,2.52344 c -0.55104,0.0825 -1.39628,0.56908 -2.07813,1.39063 -1.6043,1.9331 0.72524,5.77971 3.05274,5.04101 0.9355,-0.2969 1.89872,0.13816 2.23242,1.00782 0.585,1.52429 1.8415,2.20549 1.4375,0.77929 -0.1169,-0.4125 0.34384,-1.75146 1.02344,-2.97656 1.0508,-1.8944 1.00925,-2.14168 -0.28125,-1.64649 -0.8346,0.3202 -1.26915,0.98612 -0.96485,1.47852 1.0452,1.6912 -1.25581,0.89499 -3.00781,-1.04102 -0.9642,-1.06529 -1.4571,-2.4153 -1.0957,-3 0.49,-0.79284 0.23268,-1.11567 -0.31836,-1.0332 z m -10.83399,0.96875 c -1.4506,0 -4.43243,3.54413 -3.64453,4.33203 0.3679,0.3678 1.15617,0.63285 1.75195,0.58985 0.5958,-0.0435 0.50307,-0.31266 -0.20703,-0.59766 -0.9253,-0.3713 -0.67015,-1.05612 0.90235,-2.41992 1.2071,-1.0467 1.74616,-1.9043 1.19726,-1.9043 z m 12.97852,8 c 0.8143,0 0.81313,0.30005 -0.01,1.12305 -0.6167,0.617 -0.88937,1.8545 -0.60547,2.75 0.4374,1.3794 0.35777,1.40255 -0.52343,0.15625 -0.5719,-0.8091 -1.18227,-1.2591 -1.35547,-1 -0.1733,0.259 -1.10948,1.41952 -2.08008,2.57812 -1.6861,2.0134 -1.68488,2.16558 0.0117,3.45118 1.5028,1.1385 1.58683,1.13319 0.54883,-0.0332 -0.8658,-0.973 -0.91668,-1.74978 -0.17578,-2.64258 1.2727,-1.5335 3.90234,-0.70789 3.90234,1.22461 0,0.7661 0.50575,1.39258 1.12305,1.39258 0.8098,0 0.79723,0.38995 -0.043,1.40235 -0.894,1.0771 -0.8631,1.52387 0.1289,1.92187 0.8657,0.3474 0.74954,0.54466 -0.35156,0.59766 -0.9037,0.0434 -1.89979,-0.5886 -2.21289,-1.4043 -0.9153,-2.3854 -3.81107,-0.66104 -3.10937,1.85156 0.4733,1.6947 0.37992,1.82346 -0.45508,0.63086 -0.5776,-0.825 -1.05446,-1.02672 -1.06446,-0.44922 -0.008,0.5775 0.5236,1.59 1.1836,2.25 0.9334,0.9333 0.9206,1.19922 -0.0586,1.19922 -0.692,0 -0.99296,0.43103 -0.66796,0.95703 0.8843,1.4307 3.30435,0.15765 3.15625,-1.66015 -0.0708,-0.87 0.44528,-1.70778 1.14648,-1.86328 0.7013,-0.1554 0.8138,-0.0549 0.25,0.22461 -1.5016,0.74468 -1.25046,2.0424 0.52734,2.7246 0.8535,0.3275 1.30727,0.20005 1.00977,-0.28125 -0.6813,-1.1024 1.452,-2.83882 3.4375,-2.79882 0.8804,0.0179 1.5643,1.05817 1.6543,2.51757 0.1101,1.7811 -0.0934,2.08909 -0.71485,1.08399 -0.7186,-1.1623 -1.17489,-1.07882 -2.65429,0.48828 -1.4786,1.5661 -1.51202,1.7966 -0.19532,1.3418 0.8749,-0.3022 2.13985,-0.20942 2.81055,0.20507 0.6707,0.4145 -0.63429,0.75391 -2.90039,0.75391 -2.5721,0 -3.62835,-0.31343 -2.81055,-0.83203 0.9178,-0.5821 0.62629,-0.8347 -0.97461,-0.8457 -2.0049,-0.0134 -2.14929,0.2397 -1.17383,2.0625 0.61222,1.1438 1.72878,1.84068 2.48438,1.55078 0.895,-0.3436 1.1781,-0.0192 0.8125,0.93359 -0.3763,0.9805 -0.0837,1.2782 0.89062,0.9043 0.7981,-0.3062 1.99697,0.1005 2.66407,0.9043 0.9872,1.1895 0.83085,1.58298 -0.83985,2.11328 -2.191,0.6954 -2.83291,2.51562 -0.88672,2.51562 0.64171,0 0.8787,0.28918 0.5254,0.64258 -0.3534,0.3534 -1.32967,0.0726 -2.16797,-0.62305 -1.1414,-0.9472 -1.52344,-0.96441 -1.52344,-0.0703 0,0.779 -0.5316,0.66372 -1.5293,-0.33398 -1.5252,-1.5252 -4.4707,-1.20122 -4.4707,0.49218 l 0.004,0 c 0,0.4911 -0.5625,0.87738 -1.25,0.85938 -0.6875,-0.0183 -0.14834,-0.94836 1.19726,-2.06836 1.3476,-1.1215 2.0214,-2.3419 1.5,-2.7168 -0.5206,-0.3743 -0.94726,-1.35664 -0.94726,-2.18164 0,-0.8349 -0.72864,-1.38067 -1.64454,-1.23047 -1.1922,0.1955 -1.6054,-0.42274 -1.5,-2.24804 0.1682,-2.9125 1.40541,-3.31419 2.37891,-0.77149 0.6966,1.8195 4.50369,5.33927 5.11719,4.73047 0.3753,-0.3723 -1.19873,-2.41197 -4.20703,-5.45117 -1.0745,-1.0854 -1.53601,-2.39502 -1.09571,-3.10742 0.4883,-0.7901 0.34637,-0.97548 -0.39453,-0.51758 -1.6998,1.0505 -1.40264,-0.46962 0.50196,-2.57422 0.9394,-1.0379 1.16905,-1.83008 0.53125,-1.83008 -0.6178,0 -0.8831,-0.62914 -0.5879,-1.39844 0.2952,-0.7694 0.0562,-1.69549 -0.53124,-2.05859 -0.5875,-0.3631 -1.06836,-1.11016 -1.06836,-1.66016 0,-0.55 0.48602,-0.69988 1.07812,-0.33398 0.5922,0.366 1.92715,-0.25104 2.96875,-1.36914 1.3256,-1.4228 1.52813,-2.16315 0.67383,-2.46875 -0.6712,-0.2401 -0.85842,-0.82312 -0.41602,-1.29492 0.4424,-0.4719 1.26427,-0.19582 1.82618,0.61328 0.77318,1.1131 1.14549,1.1666 1.52929,0.2207 0.279,-0.6875 1.00885,-1.25 1.62305,-1.25 z m 2.91992,0.95508 c -0.28752,0.009 0.007,0.39403 0.82617,1.31641 1.6706,1.8813 2.9668,2.19971 2.9668,0.72851 0,-0.55 -0.18797,-1 -0.41797,-1 -0.23,0 -1.2274,-0.30975 -2.2168,-0.68945 -0.60258,-0.23123 -0.98569,-0.36104 -1.1582,-0.35547 z m -22.20703,4.71289 0.37305,3.20703 c 0.2053,1.7635 0.7121,3.52562 1.125,3.91602 0.4132,0.3904 0.4421,-0.41602 0.0664,-1.79102 -0.6484,-2.3736 -0.53984,-2.33842 2.12696,0.67188 2.4499,2.7656 4.30859,4.05634 4.30859,2.99414 0,-0.1835 -1.8001,-2.28312 -4,-4.66602 l -4,-4.33203 z m 16.92383,1.33203 c -0.4739,0 -0.60176,0.675 -0.28516,1.5 0.3166,0.825 0.9636,1.5 1.4375,1.5 0.4739,0 0.60166,-0.675 0.28516,-1.5 -0.3166,-0.825 -0.9636,-1.5 -1.4375,-1.5 z m -18.54688,5.39453 c 0.25443,-0.0404 1.00786,0.71183 2.5625,2.3711 1.683,1.7962 3.06055,2.8087 3.06055,2.25 0,-0.5587 0.46887,-1.01563 1.04297,-1.01563 0.5741,0 0.93659,0.5625 0.80469,1.25 -0.392,2.0429 1.19455,5.74963 2.46875,5.76563 0.7795,0.0101 0.72047,0.3084 -0.17383,0.875 -0.9458,0.5993 -1.0216,1.06617 -0.25,1.54297 0.6087,0.3762 1.10742,0.25602 1.10742,-0.26758 0,-0.5236 0.6188,-1.18832 1.375,-1.47852 0.9387,-0.3602 1.375,0.25772 1.375,1.94922 0,1.6149 -1.17475,3.41472 -3.37305,5.16992 l 0,0.002 c -3.8044,3.0375 -6.34428,3.5231 -8.17578,1.5625 -1.0266,-1.099 -0.70327,-1.27322 1.82813,-0.97852 2.8639,0.3335 5.9707,-1.39677 5.9707,-3.32617 0,-1.6516 -5.22016,-5.92446 -7.06836,-5.78516 -1.062,0.08 -1.93164,0.53 -1.93164,1 0,0.47 1.0125,0.57076 2.25,0.22266 1.5954,-0.4488 1.84819,-0.35589 0.87109,0.32031 -0.758,0.5245 -1.0693,1.45295 -0.6914,2.06445 0.9527,1.5414 2.86033,1.40818 1.95703,-0.13672 -0.402,-0.6875 0.2469,-0.3935 1.4414,0.6543 2.6005,2.2809 2.56728,2.02836 0.48438,3.72266 -1.4723,1.1976 -1.60608,1.15653 -1.05078,-0.32617 0.4262,-1.1386 0.21352,-1.53759 -0.64258,-1.20899 -0.7029,0.2697 -2.14252,-0.70341 -3.19922,-2.16211 -1.0566,-1.4587 -2.41463,-3.17811 -3.01953,-3.82031 -0.8037,-0.8531 -0.7364,-1.50633 0.25,-2.42773 1.0621,-0.9927 1.34961,-0.99679 1.34961,-0.0215 0,0.9595 0.26936,0.96892 1.19336,0.0449 0.924,-0.924 1.74276,-0.68642 3.63476,1.05078 l 2.44336,2.24219 -1.17187,-2.25 c -1.1209,-2.1539 -2.17138,-2.66554 -4.79688,-2.33594 -0.6588,0.0826 -1.71601,-0.81805 -2.34961,-2.00195 -0.8903,-1.6637 -0.87811,-1.98285 0.0547,-1.40625 0.8725,0.5392 1.02126,0.0862 0.53906,-1.63086 -0.26359,-0.93861 -0.36781,-1.44906 -0.16992,-1.48047 z m 23.68164,2.60547 c -0.5824,0 -1.05859,0.45 -1.05859,1 0,0.55 0.19891,1 0.44141,1 0.2425,0 0.71869,-0.45 1.05859,-1 0.3399,-0.55 0.14109,-1 -0.44141,-1 z m -25.74804,8.53711 c 0.31552,0.038 1.08282,0.82095 2.52929,2.46289 3.3826,3.8399 4.26618,6.3083 1.29688,3.6211 -1.7764,-1.6076 -1.85255,-1.56844 -1.59375,0.78906 0.1495,1.3622 0.56257,2.94638 0.91797,3.52148 0.406,0.6568 -0.0243,0.80207 -1.15625,0.38867 -1.669,-0.6096 -1.66023,-0.49772 0.10937,1.51758 1.0508,1.1966 1.6133,2.47264 1.25,2.83594 -0.3633,0.3633 -0.66015,0.18241 -0.66015,-0.40039 0,-0.5829 -0.60049,-1.28881 -1.33399,-1.57031 -0.9434,-0.362 -1.28251,0.33758 -1.16015,2.39258 0.095,1.5976 -0.23247,2.90429 -0.72657,2.90429 -0.494,0 -0.64293,0.41302 -0.33203,0.91602 0.3109,0.503 0.0212,1.0951 -0.64258,1.3164 -0.9416,0.3126 -0.94276,0.56794 -0.01,1.14453 0.6608,0.40851 1.20117,0.23835 1.20117,-0.37695 0,-0.6149 0.44468,-0.84186 0.98828,-0.50586 0.5669,0.3504 0.73408,-0.0514 0.39258,-0.9414 -0.5774,-1.5047 0.26374,-1.89912 3.61914,-1.69922 1.0066,0.06 1.0888,-0.093 0.25,-0.46485 -1.8766,-0.8321 -1.50658,-2.70065 0.39062,-1.97265 1.367,0.5246 1.43248,0.37684 0.38868,-0.88086 -1.4043,-1.6921 -0.6061,-5.00976 0.9707,-4.03516 0.5577,0.3446 2.24716,-0.22076 3.75586,-1.25586 1.5579,-1.0688 4.03703,-1.76121 5.73633,-1.60351 2.1959,0.2036 2.5951,0.0263 1.5,-0.66602 -0.8207,-0.5188 -0.98534,-0.94898 -0.36524,-0.95898 0.6202,-0.008 1.64951,0.61256 2.28711,1.38086 0.6376,0.7682 1.98048,1.18242 2.98438,0.91992 1.0952,-0.2864 2.07537,0.17675 2.45117,1.15625 0.3446,0.8978 0.22141,1.38122 -0.27539,1.07422 -0.4967,-0.307 -1.13156,0.006 -1.41016,0.69726 -0.2785,0.6909 -0.54956,0.35586 -0.60156,-0.74414 -0.074,-1.5698 -0.28603,-1.69604 -0.98633,-0.58984 -1.212,1.9146 -0.15228,4.33395 1.60352,3.66015 0.7831,-0.3003 1.16777,-0.1341 0.85547,0.3711 -1.0355,1.6756 -5.54459,0.42415 -8.42969,-2.33985 l -2.84375,-2.72461 0.27734,2.53907 c 0.1533,1.3964 1.16876,3.66878 2.25586,5.05078 1.713,2.1778 2.14119,2.31474 3.21289,1.02344 1.3735,-1.6551 3.46649,-2.06674 2.49219,-0.49024 -0.3399,0.55 -0.17918,1 0.35742,1 0.5367,0 1.17638,-0.5625 1.42188,-1.25 0.2456,-0.688 0.75436,-0.96624 1.13086,-0.61914 0.3765,0.347 -0.0395,1.35589 -0.92579,2.24219 -0.8862,0.8862 -1.33479,2.05952 -0.99609,2.60742 0.3556,0.5754 -0.0411,0.74634 -0.9375,0.40234 -0.8536,-0.3276 -1.55078,-1.07335 -1.55078,-1.65625 0,-0.5828 -0.28928,-0.76941 -0.64258,-0.41601 -0.3534,0.3533 -0.10336,1.29269 0.55664,2.08789 0.9354,1.1267 0.92503,1.88706 -0.0469,3.44336 -1.0056,1.61 -0.98817,2.30736 0.0859,3.60156 0.7328,0.8829 1.04286,1.89475 0.68946,2.24805 -0.3533,0.3534 -0.64258,0.11816 -0.64258,-0.52344 0,-0.6417 -0.4217,-1.16797 -0.9375,-1.16797 -1.256,0 -0.93643,4.30538 0.38867,5.23438 0.6735,0.4721 0.57707,0.74 -0.26953,0.75 -0.8605,0.01 -1.09624,0.70922 -0.68164,2.01562 0.4147,1.3064 0.17691,2.00563 -0.68359,2.01563 -0.9679,0.0113 -0.91851,0.27217 0.18359,0.98437 0.9013,0.5825 1.02429,0.97438 0.30859,0.98438 -0.655,0.008 -1.45615,-0.41346 -1.78125,-0.93946 -0.7175,-1.161 -3.52734,-0.22917 -3.52734,1.16993 0,0.5504 0.64098,0.75237 1.42578,0.45117 0.7848,-0.3011 1.97398,0.11237 2.64258,0.91797 l 0.004,0 c 0.6687,0.8056 0.98266,1.69897 0.69726,1.98437 -0.2855,0.2854 -0.78142,-0.16841 -1.10352,-1.00781 -0.32209,-0.8395 -1.18717,-1.29557 -1.92187,-1.01367 -0.7347,0.282 -2.40057,-0.61961 -3.70117,-2.00391 -1.9613,-2.0878 -2.63447,-2.3058 -3.95117,-1.2793 -1.3699,1.068 -1.4176,1.01808 -0.3418,-0.36132 1.031,-1.3218 0.84775,-2.06377 -1.06445,-4.28907 -2.2687,-2.6403 -5.68164,-2.82494 -5.68164,-0.30664 0,0.7734 -0.3272,0.76666 -1.1211,-0.0273 -0.6171,-0.6168 -1.69799,-0.90231 -2.40039,-0.63281 -0.7023,0.2695 -1.57049,0.0148 -1.92969,-0.56641 -0.4154,-0.6722 0.002,-0.81076 1.14844,-0.38086 1.5925,0.5972 1.64076,0.47724 0.41016,-1.03516 -2.0283,-2.4929 -0.8224,-2.97896 1.6582,-0.66796 1.919,1.7879 2.26824,1.82746 3.67774,0.41796 0.8564,-0.8564 1.55664,-1.83984 1.55664,-2.18554 0,-0.3457 -0.53922,-0.0877 -1.19922,0.57226 -1.8218,1.8218 -2.39866,1.46201 -2.34766,-1.46679 0.0255,-1.4668 0.68183,-2.87842 1.45703,-3.13672 1.0224,-0.3407 1.21196,0.0411 0.69336,1.39258 -0.6125,1.596 -0.37415,1.54411 1.65625,-0.36329 3.0425,-2.8583 3.36882,-2.80436 3.16602,0.52344 -0.2541,4.1718 -0.34748,4.4164 -1.42578,3.75 -0.55,-0.3399 -1,-0.16719 -1,0.38281 0,0.55 0.45,1.27729 1,1.61719 0.55,0.3399 1,0.1149 1,-0.5 0,-0.6149 0.49892,-0.80989 1.10742,-0.43359 0.7715,0.4768 0.6958,0.94367 -0.25,1.54297 -1.4649,0.9282 -1.45532,0.93534 1.89258,1.30664 2.8427,0.3153 2.87954,-0.86046 0.0898,-2.81446 -1.6842,-1.1797 -1.90597,-1.81552 -1.01367,-2.89062 1.2575,-1.5152 3.891,-1.609 6.1914,-0.2207 1.2594,0.76 1.28426,0.64865 0.16016,-0.73829 -0.7277,-0.89787 -1.9652,-1.38703 -2.75,-1.08593 -0.7848,0.3012 -1.42773,0.0884 -1.42773,-0.47461 0,-2.1627 2.62179,-1.83161 5.40429,0.68359 2.0479,1.8511 2.72437,2.1179 2.29297,0.9043 -0.3365,-0.9465 0.0441,-2.37614 0.8457,-3.17774 0.8016,-0.8017 1.44183,-1.82749 1.42383,-2.27929 -0.0183,-0.4518 -0.92999,0.25481 -2.02539,1.57031 -1.0955,1.3154 -2.29015,2.09256 -2.65625,1.72656 -0.366,-0.3661 0.0622,-1.3941 0.95117,-2.2832 1.4886,-1.4886 1.36426,-1.95573 -1.56054,-5.92383 -1.7468,-2.3699 -3.80111,-4.56731 -4.56641,-4.88281 -1.1886,-0.4901 -1.1886,-0.32604 0,1.13476 1.2293,1.5109 1.17989,1.63216 -0.41211,1.03516 -1.1489,-0.4299 -1.56384,-0.29134 -1.14844,0.38086 0.3592,0.5811 1.27401,0.81864 2.03321,0.52734 0.9512,-0.365 1.30793,0.15744 1.14843,1.68164 -0.142,1.3571 0.34914,2.26271 1.26954,2.34571 3.2337,0.2902 3.43948,0.46277 1.74218,1.45117 -0.9669,0.5631 -2.19898,0.74936 -2.73828,0.41601 -0.5796,-0.35819 -0.71789,0.13217 -0.33789,1.19727 0.4446,1.2464 -0.36922,0.87588 -2.64062,-1.19922 -2.7656,-2.5265 -3.10014,-2.6449 -2.11914,-0.75 0.6406,1.2375 1.5983,2.25 2.1289,2.25 0.5307,0 0.96485,0.52095 0.96485,1.15625 0,0.7325 -0.64,0.59581 -1.75,-0.37109 -0.9625,-0.8385 -2.425,-1.32323 -3.25,-1.07813 -1.1538,0.3428 -1.20103,0.23455 -0.20313,-0.46875 1.0301,-0.7261 0.93969,-1.20517 -0.44141,-2.32617 -1.391,-1.1291 -1.57582,-1.13988 -0.91992,-0.0508 0.5045,0.8378 0.29116,1.69933 -0.55664,2.23633 -0.9979,0.6321 -1.0341,0.87572 -0.1289,0.88672 0.6875,0.008 1.25,0.44485 1.25,0.96875 0,0.5234 -1.31192,0.78698 -2.91602,0.58398 -2.7299,-0.3455 -2.89175,-0.17447 -2.53125,2.67383 0.3758,2.9693 0.33682,3.00002 -1.58398,1.26172 -2.0167,-1.8251 -2.75817,-4.07722 -0.98047,-2.97852 0.5668,0.3504 0.73407,-0.0514 0.39258,-0.9414 -0.33921,-0.8839 -0.0655,-1.55274 0.63476,-1.55274 0.9445,0 0.95859,-0.32565 0.0586,-1.41015 -0.8143,-0.9811 -0.84792,-1.61262 -0.10742,-2.07032 0.5857,-0.3619 0.76343,-1.14518 0.39453,-1.74218 -0.4311,-0.6975 -0.1968,-0.79358 0.6543,-0.26758 0.9617,0.5944 1.14925,0.36259 0.68555,-0.84571 -0.3512,-0.9152 -0.17653,-1.66406 0.38867,-1.66406 0.5652,0 0.7343,-0.47524 0.375,-1.05664 -1.2914,-2.0895 -1.19184,-6.11056 0.16406,-6.63086 0.7543,-0.2895 1.3711,-0.95491 1.3711,-1.47851 0,-0.5236 -0.45,-0.67389 -1,-0.33399 -0.55,0.3399 -1,0.16914 -1,-0.38086 0,-0.55 0.40785,-1.25254 0.90625,-1.56054 0.4984,-0.308 0.6665,-1.5716 0.375,-2.8086 -0.19338,-0.82062 -0.22002,-1.2424 0.0254,-1.21289 z m 18.56054,1.50391 c -0.0659,-0.009 -0.12575,-0.007 -0.17968,0.006 -0.0616,0.0141 -0.11495,0.0427 -0.15821,0.0859 -0.3462,0.3462 0.0831,1.34084 0.95313,2.21094 1.2722,1.2722 2.06583,1.36249 4.04883,0.45899 3.1375,-1.4296 3.15722,-2.55274 0.0449,-2.55274 -1.7955,0 -2.27899,0.4196 -1.86719,1.625 0.3813,1.1161 0.0704,0.99947 -0.99609,-0.37305 -0.65385,-0.84157 -1.38437,-1.40071 -1.84571,-1.46093 z m -0.22851,8.31445 c -2.2482,0.1375 -2.2831,0.24788 -0.75,2.36328 1.8791,2.5929 2.55779,2.89655 1.74609,0.78125 -0.3166,-0.825 -0.14012,-1.5 0.39258,-1.5 0.5327,0 0.96875,-0.40273 0.96875,-0.89453 0,-0.4918 -1.06062,-0.829 -2.35742,-0.75 z m -4.25586,2.63086 c 0.47194,-0.0251 1.77265,0.98205 2.91015,2.54492 0.988,1.3577 1.4382,2.45264 1,2.43164 -0.8319,-0.0398 -2.34709,-1.58139 -3.65039,-3.71289 -0.52758,-0.86284 -0.54292,-1.24863 -0.25976,-1.26367 z m -12.38672,3.01367 c 0.55,0 1,0.45 1,1 0,0.55 -0.45,1 -1,1 -0.55,0 -1,-0.45 -1,-1 0,-0.55 0.45,-1 1,-1 z m 11,2 c 0.55,0 1,0.45 1,1 0,0.55 -0.45,1 -1,1 -0.55,0 -1,-0.45 -1,-1 0,-0.55 0.45,-1 1,-1 z m -4.67773,0.20508 c -0.20615,-0.0261 -0.32227,0.11443 -0.32227,0.42773 0,0.5684 0.29935,1.33458 0.66601,1.70118 0.3667,0.3667 0.8995,0.43459 1.1836,0.15039 0.2842,-0.2841 -0.0152,-1.05029 -0.66602,-1.70117 -0.3588,-0.35875 -0.65524,-0.55199 -0.86132,-0.57813 z m -0.32227,7.79492 c 0.55,0 1,0.45 1,1 0,0.55 -0.45,1 -1,1 -0.55,0 -1,-0.45 -1,-1 0,-0.55 0.45,-1 1,-1 z m 7.03516,4.35742 c -0.15636,-0.008 -0.31401,-0.008 -0.47266,0.002 -1.2691,0.0771 -2.11425,0.64692 -1.87695,1.26562 0.2373,0.6188 1.49602,1.125 2.79492,1.125 1.4936,0 2.1821,-0.46542 1.875,-1.26562 -0.23363,-0.60883 -1.22582,-1.07214 -2.32031,-1.12696 z m -4.43946,1.6543 c -0.4977,-0.006 -0.20265,0.77578 0.65625,1.73828 1.3196,1.4789 1.34916,1.94521 0.18946,3.00781 -0.7545,0.6916 -1.11589,1.9291 -0.80079,2.75 l 0,0.002 c 0.7275,1.8934 1.78168,1.89133 3.35938,-0.01 0.7516,-0.9056 0.83248,-1.5 0.20508,-1.5 -0.5715,0 -1.26557,0.5625 -1.54297,1.25 -0.3637,0.9013 -0.52699,0.9174 -0.58399,0.0586 -0.1352,-2.0395 2.16488,-2.69567 3.42188,-0.97657 0.6585,0.9005 1.48609,1.34985 1.83789,0.99805 0.7214,-0.7214 -5.34099,-7.30236 -6.74219,-7.31836 z m 4.86524,1.41406 c -0.13339,-0.008 -0.24467,0.0259 -0.32422,0.10547 -0.3182,0.3182 0.0835,0.99611 0.89258,1.50781 2.117,1.3388 2.39377,1.1758 0.95117,-0.5625 -0.52185,-0.62872 -1.11938,-1.02605 -1.51953,-1.05078 z m -13.07422,0.55664 c 0.52885,-0.10397 1.68911,0.88727 2.43555,2.52539 1.01949,2.2376 0.81024,2.8038 -1.93946,5.25 -1.6952,1.508 -3.60107,2.74877 -4.23437,2.75977 -0.6333,0.0105 -2.26385,0.798 -3.62305,1.75 -1.3587,0.952 -1.94654,1.73242 -1.30664,1.73242 0.6399,0 1.44135,-0.45 1.78125,-1 1.2158,-1.9671 2.23249,-0.94995 1.90039,1.90235 -0.2177,1.8697 0.27366,3.3826 1.38086,4.25 1.4841,1.1627 1.57288,1.14255 0.64648,-0.15235 -1.3576,-1.8977 -1.60753,-6 -0.36523,-6 0.5158,0 0.97548,0.3375 1.02148,0.75 0.0459,0.4125 0.19122,1.71579 0.32422,2.89649 0.1331,1.1807 1.05523,2.95942 2.04883,3.95312 1.7422,1.7422 1.78172,1.72822 1.10742,-0.39648 -0.4227,-1.3318 -0.27596,-2.20313 0.36914,-2.20313 0.5871,0 1.06641,0.4762 1.06641,1.0586 0,0.5825 0.48999,0.75621 1.08789,0.38671 0.5937,-0.3696 0.86515,-1.52059 0.59375,-2.55859 -0.2715,-1.0379 -0.0864,-1.88672 0.41211,-1.88672 0.8877,0 1.27397,1.38594 1.00976,3.61914 -0.0804,0.6797 1.07821,0.98057 2.94141,0.76367 2.746,-0.3198 2.91164,-0.19679 1.55664,1.15821 -0.8339,0.834 -1.26006,2.18274 -0.94726,2.99804 0.4193,1.0924 0.10137,1.30289 -1.20703,0.80079 -1.3544,-0.5197 -1.57293,-0.34307 -0.91993,0.74023 0.738,1.2259 0.61669,1.22677 -0.88281,0.01 -1.3572,-1.1017 -1.45697,-1.58729 -0.45117,-2.20899 1.0303,-0.6369 1.03941,-1.04652 0.041,-2.04492 -0.9984,-0.9984 -1.59027,-0.90787 -2.95507,0.45703 -0.9389,0.9389 -1.21067,1.70902 -0.60157,1.70898 0.609,10e-6 1.39188,0.73783 1.73828,1.64063 0.52671,1.3725 0.38083,1.43375 -0.89257,0.37695 -1.7945,-1.4893 -2.07192,0.0335 -0.32422,1.78125 0.9334,0.9333 0.9334,1.20119 0,1.20117 -0.66,0 -1.19922,0.4341 -1.19922,0.9668 0,0.5328 0.74876,0.68128 1.66406,0.33008 1.037,-0.3979 1.41852,-0.23848 1.01172,0.41992 -0.3592,0.5811 0.0995,1.66817 1.02149,2.41797 1.4481,1.1778 1.59592,1.14652 1.07812,-0.23828 -0.8691,-2.324 2.42356,-4.97921 4.03516,-3.25391 0.6619,0.7083 1.8304,1.04751 2.5957,0.75391 0.7653,-0.2937 1.65115,-0.11341 1.96875,0.40039 0.3244,0.5247 -0.72664,0.78259 -2.39844,0.58789 -1.637,-0.1906 -2.97656,0.0936 -2.97656,0.63281 0,0.5393 0.5625,0.9861 1.25,0.9961 0.8359,0.0103 0.7531,0.3416 -0.25,1 -1.3333,0.8753 -1.3333,1.10404 0,2.06054 1.3334,0.9566 1.3334,1.03057 0,0.66407 -0.825,-0.2267 -1.56077,-1.04848 -1.63477,-1.82618 -0.0741,-0.7776 -0.187,-1.97459 -0.25,-2.66211 -0.0635,-0.6875 -0.515,-1.25 -1.0039,-1.25 -0.4889,10e-6 -0.826,0.78752 -0.75,1.75 0.0764,0.9625 -0.53633,1.80882 -1.36133,1.88282 -0.825,0.074 -2.0625,0.187 -2.75,0.25 -0.6875,0.0634 -1.25,0.61375 -1.25,1.22265 0,0.6084 0.64098,0.86175 1.42578,0.56055 0.7848,-0.3011 1.97117,0.10675 2.63477,0.90625 0.6636,0.7996 1.92508,1.33425 2.80468,1.18945 2.15617,-0.35479 2.41549,4.17857 0.37305,6.48828 -0.85201,0.96156 -1.99837,1.74805 -2.54687,1.74805 -0.5489,0 -0.11958,-0.7875 0.95312,-1.75 2.3497,-2.1082 3.13205,-7.13949 0.81055,-5.21289 -0.788,0.6539 -1.14293,1.65787 -0.78907,2.23047 0.3647,0.5901 0.16076,0.74252 -0.46874,0.35352 -0.61152,-0.3776 -0.86325,-1.3323 -0.56055,-2.1211 0.4364,-1.1371 -0.24527,-1.33609 -3.29297,-0.96679 -2.1142,0.2561 -3.38266,0.12704 -2.81836,-0.28516 1.522,-1.1118 1.17888,-14.6947 -0.41992,-16.6211 -0.733,-0.88328 -1.75895,-1.34243 -2.28125,-1.01953 -0.5224,0.3228 -1.71976,-0.10798 -2.66016,-0.95898 -1.176,-1.0644 -2.1714,-1.25261 -3.1875,-0.59961 -1.262,0.811 -1.27226,1.08212 -0.0684,1.85742 0.7752,0.4991 2.0127,0.67548 2.75,0.39258 1.3123,-0.5036 1.7858,0.75468 1.3711,3.64648 -0.1728,1.2055 0.0559,1.22832 1.37109,0.13672 0.8674,-0.7202 1.28749,-1.77896 0.93359,-2.35156 -0.3539,-0.5727 -0.2149,-0.77477 0.3086,-0.45117 1.5671,0.9685 1.03772,6.20457 -0.64258,6.35547 -0.825,0.074 -2.0625,0.187 -2.75,0.25 -0.6875,0.0634 -1.24438,1.35273 -1.23438,2.86523 0.0107,1.923 0.2739,2.34138 0.875,1.39258 0.5993,-0.9458 1.06617,-1.0215 1.54297,-0.25 0.3763,0.6088 1.22,1.1018 1.875,1.0918 0.7157,-0.009 0.59271,-0.40188 -0.30859,-0.98438 -1.3018,-0.8413 -1.28237,-0.97333 0.14453,-0.98633 1.1128,-0.0104 1.598,0.76172 1.5,2.38672 -0.1207,2.0095 -0.44458,2.23987 -1.98828,1.41406 -1.4245,-0.76197 -2.40414,-0.46133 -4.30274,1.32227 -2.04948,1.9254 -2.60771,2.06998 -3.35351,0.86328 -0.4919,-0.7961 -0.53626,-1.68511 -0.0977,-1.97461 0.4387,-0.2895 1.35551,-1.58355 2.03711,-2.87695 1.0919,-2.072 0.93154,-2.67364 -1.35156,-5.05664 -2.3255,-2.4273 -2.44512,-2.90434 -1.16602,-4.64844 1.2455,-1.6982 1.2221,-2.16963 -0.1914,-3.73633 -1.4949,-1.6575 -1.48841,-1.74357 0.0879,-1.13867 1.2856,0.4933 1.55143,0.25455 1.08203,-0.96875 -0.4467,-1.1641 -0.19668,-1.45867 0.88672,-1.04297 0.8306,0.3188 1.80486,0.10269 2.16406,-0.47851 0.3876,-0.6272 0.0623,-0.8304 -0.79883,-0.5 -1.9983,0.7668 -3.09033,-1.34565 -1.61523,-3.12305 0.9301,-1.1203 0.93217,-1.45508 0.0137,-1.45508 -0.779,0 -0.66176,-0.5316 0.33594,-1.52929 0.8409,-0.84101 1.293,-2.14494 1.0039,-2.89844 -0.2892,-0.7534 0.002,-1.69836 0.64844,-2.09766 0.893,-0.5522 0.88364,-0.90431 -0.0391,-1.47461 -0.7172,-0.4432 -0.0639,-0.75 1.59766,-0.75 l 2.8125,0 -2.20508,1.78516 c -1.2127,0.9819 -2.20508,2.10449 -2.20508,2.49609 0,0.3917 0.68584,0.14432 1.52344,-0.55078 1.2734,-1.0568 1.41929,-0.99555 0.89257,0.37695 -0.36209,0.9435 -0.13504,1.64258 0.53516,1.64258 0.6413,0 0.84563,-0.52125 0.45313,-1.15625 -0.4421,-0.7153 -0.2739,-0.88155 0.4414,-0.43945 0.635,0.3924 1.1543,0.2368 1.1543,-0.3457 0,-0.5824 -0.47609,-1.0586 -1.05859,-1.0586 -0.5825,0 -0.77715,-0.45858 -0.43164,-1.01758 1.0029,-1.6228 2.71427,0.0544 2.17187,2.12891 -0.6531,2.4973 0.44435,2.39066 2.71875,-0.26562 1.4407,-1.68261 1.50482,-2.02485 0.29492,-1.56055 -0.8518,0.3269 -2.14535,-0.1379 -2.87304,-1.03321 -1.13712,-1.399 -1.08335,-1.53703 0.37695,-0.99023 1.215,0.4549 1.54008,0.2234 1.14258,-0.8125 -0.3633,-0.9468 -0.27239,-1.40441 0.0449,-1.4668 z m 6.61328,2.01758 c -0.55,0 -1,0.45 -1,1 0,0.55 0.45,1 1,1 0.55,0 1,-0.45 1,-1 0,-0.55 -0.45,-1 -1,-1 z m -9.44141,6 c -0.2425,0 -0.71869,0.45 -1.05859,1 -0.3399,0.55 -0.14109,1 0.44141,1 0.5825,0 1.05859,-0.45 1.05859,-1 0,-0.55 -0.19881,-1 -0.44141,-1 z m -3.36132,0.0156 c -0.53819,0.0539 -1.20711,0.56855 -1.53907,1.43359 -0.3716,0.968 -0.076,1.26418 0.89258,0.89258 0.7969,-0.3059 1.44922,-0.95802 1.44922,-1.44922 0,-0.5391 -0.24502,-0.81633 -0.58203,-0.87109 -0.0702,-0.0114 -0.14383,-0.0136 -0.2207,-0.006 z m 8.20703,1 c 0.6023,0.008 0.4341,0.43371 -0.375,0.94531 -0.8091,0.5117 -1.10947,1.29277 -0.66797,1.73437 0.4416,0.4415 1.49284,-0.0981 2.33594,-1.19726 0.8432,-1.0991 1.34046,-1.35115 1.10546,-0.56055 -0.4203,1.4142 2.94429,5.64946 3.80469,4.78906 0.2425,-0.2424 -0.24568,-1.00937 -1.08398,-1.70507 -0.8383,-0.6958 -1.52344,-1.71563 -1.52344,-2.26563 0,-0.55 0.7595,-0.38185 1.6875,0.37305 1.4948,1.2159 1.60403,1.14993 0.95703,-0.57227 -0.7122,-1.896 -0.6801,-1.899 1.3125,-0.0957 1.1237,1.0169 2.00784,2.34301 1.96484,2.94531 -0.0456,0.6321 -0.29278,0.56525 -0.58398,-0.15625 -0.8103,-2.0082 -1.90755,-1.4414 -1.93555,1 -0.0142,1.2375 0.45136,2.58028 1.03516,2.98438 0.7126,0.4932 0.66456,0.74 -0.14844,0.75 -0.6661,0.008 -2.09453,-0.93135 -3.17383,-2.08985 -1.9424,-2.0848 -4.66044,-1.75907 -3.81054,0.45703 0.2478,0.6462 -0.59714,1.21197 -1.93164,1.29297 -2.8863,0.1755 -3.13735,-1.26713 -0.37305,-2.14453 1.1,-0.3491 2,-1.10925 2,-1.68945 0,-0.6331 -0.63047,-0.53098 -1.57617,0.2539 -1.305,1.08301 -1.72622,1.06434 -2.44922,-0.10546 -0.938,-1.5177 1.45759,-4.97136 3.42969,-4.94336 z m 12.71679,4.03906 c 0.85007,0.0927 1.57906,1.37553 1.22266,2.73828 -0.2575,0.985 -1.45295,1.84044 -2.65625,1.89844 -1.2033,0.0584 -1.62264,-0.11301 -0.93164,-0.37891 0.6904,-0.2659 0.9592,-0.96473 0.5957,-1.55273 -0.3755,-0.6076 -0.19307,-0.77974 0.42383,-0.39844 0.597,0.369 1.36944,0.21525 1.71484,-0.34375 0.3455,-0.559 0.0765,-1.01758 -0.59765,-1.01758 -0.6746,0 -0.955,-0.26961 -0.625,-0.59961 0.27467,-0.27467 0.57016,-0.37659 0.85351,-0.3457 z m 8.12305,1.13281 c -0.15452,-0.005 -0.0883,0.49849 0.0762,1.33203 l 0.19922,-1.13672 c -0.11863,-0.11426 -0.21569,-0.19328 -0.27539,-0.19531 z m -15.30273,5.8125 c -0.5825,0 -0.78131,0.45 -0.44141,1 0.3399,0.55 0.81609,1 1.05859,1 0.2426,0 0.44141,-0.45 0.44141,-1 0,-0.55 -0.47609,-1 -1.05859,-1 z m 6.58203,1.25 c 1.4079,0 2.35477,0.20373 2.10547,0.45313 -0.7868,0.7867 -5.59488,1.05095 -5.11914,0.28125 0.24968,-0.4039 1.60567,-0.73438 3.01367,-0.73438 z m -22.16407,2.09766 c -0.81911,0.069 -0.76575,0.40561 -0.0469,1.22461 1.4703,1.6751 1.25022,1.65873 2.47851,0.17773 0.7763,-0.9359 0.44605,-1.28552 -1.31445,-1.39062 -0.47467,-0.0283 -0.84415,-0.0347 -1.11719,-0.0117 z m 20.85157,0.72656 c 0.12954,0.004 0.23747,0.0422 0.31445,0.11914 0.3079,0.3079 -0.24622,0.86669 -1.23242,1.24219 -1.4252,0.5427 -1.54085,0.42902 -0.56055,-0.5586 0.50873,-0.51255 1.08989,-0.81416 1.47852,-0.80273 z m -22.91407,0.92773 c -1.2541,0 -1.11654,0.42201 0.63086,1.9375 l 0,-0.002 c 2.1399,1.8565 5.07227,1.83183 5.07227,-0.043 0,-1.3972 -1.99725,-1.04585 -2.03125,0.35742 -0.0169,0.69372 -0.48313,0.4712 -1.04883,-0.5 -0.5606,-0.96249 -1.74115,-1.74999 -2.62305,-1.75 z m 7.70313,0.99805 c -0.55,0 -1,0.45 -1,1 0,0.55 0.45,1 1,1 0.55,0 1,-0.45 1,-1 0,-0.55 -0.45,-1 -1,-1 z m -9.51563,2.46485 c 0.2263,0.0212 0.69416,0.25597 1.41016,0.70312 1.1575,0.7229 2.10587,1.54207 2.10547,1.82227 -4e-4,0.2802 -1.1954,0.57906 -2.6543,0.66406 -1.6702,0.0968 -2.17789,-0.14007 -1.37109,-0.63867 0.7048,-0.4356 0.95183,-1.32447 0.54883,-1.97657 -0.2493,-0.40335 -0.26537,-0.59544 -0.0391,-0.57421 z m 14.51563,2.5371 c -0.55,0 -1,0.45002 -1,1 0,0.55003 0.45,1.00005 1,1 0.55,0 1,-0.45 1,-1 0,-0.55 -0.45,-1 -1,-1 z m -13.58399,2.45313 c 0.23179,0.0465 0.27328,0.23776 0.0762,0.55664 -0.336,0.5437 -1.03328,0.98828 -1.55078,0.98828 -1.4384,0 -1.12118,-0.71606 0.61132,-1.38086 0.22248,-0.0854 0.41302,-0.13866 0.57032,-0.16211 0.11797,-0.0176 0.21574,-0.0174 0.29296,-0.002 z m 3.29688,1.00977 c -0.40539,0.0215 -0.82812,0.39488 -1.05664,0.99023 -0.3694,0.9623 -0.0722,1.25957 0.89453,0.88867 1.6798,-0.6446 1.79479,-1.01094 0.55469,-1.77734 -0.1231,-0.0761 -0.25745,-0.10872 -0.39258,-0.10156 z m 11.8457,1.5371 c -0.2425,0 -0.71869,0.45002 -1.05859,1 -0.3399,0.55003 -0.14109,1.00005 0.44141,1 0.5825,0 1.05859,-0.45 1.05859,-1 0,-0.55 -0.19881,-1 -0.44141,-1 z m -8.06054,0.29297 c 0.0847,-3.2e-4 0.14919,0.0203 0.19336,0.0645 0.3534,0.3533 0.0921,0.64257 -0.58204,0.64257 -0.6737,0 -0.95986,0.42908 -0.63476,0.95508 0.3251,0.526 1.36369,0.67809 2.30859,0.33789 1.0479,-0.3773 0.6442,0.4014 -1.0332,1.9961 -3.0624,2.9115 -3.53964,4.22768 -1.21094,3.33398 0.875,-0.3357 1.78362,0.0486 2.10742,0.89258 0.3131,0.8157 1.01836,1.48439 1.56836,1.48437 0.55,10e-6 0.70285,-0.775 0.33985,-1.7207 -0.3629,-0.9457 -0.29902,-1.35761 0.14258,-0.91601 1.37139,1.3714 0.97093,8.44654 -0.44727,7.90234 -1.2494,-0.4795 -1.56458,-1.44461 -1.39649,-4.26563 0.0606,-1.01589 -0.09,-1.09494 -0.46679,-0.24414 -0.306,0.691 -1.08015,0.9426 -1.72071,0.5586 -0.6405,-0.384 -0.53933,0.0737 0.22657,1.01758 0.7659,0.9439 1.16758,1.93984 0.89258,2.21484 -0.275,0.275 -1.10842,-0.23306 -1.85352,-1.13086 -1.1545,-1.391 -1.10168,-1.81786 0.35742,-2.88476 2.301,-1.68251 2.16377,-2.0312 -0.79883,-2.03126 -1.7342,0 -2.34526,0.42973 -1.97656,1.39063 0.4477,1.1663 0.27454,1.17639 -1.07226,0.0586 -1.8276,-1.5168 -5.44141,-2.0369 -5.44141,-0.7832 0,0.4581 0.831,0.83404 1.8457,0.83398 1.0148,0 2.67636,0.91937 3.69336,2.04297 1.798,1.9879 1.79804,2.02378 -0.01,1.33008 -1.3319,-0.5111 -1.64201,-0.36437 -1.09571,0.51953 0.4349,0.7036 0.0102,2.06453 -0.99023,3.16992 -0.9641,1.0654 -1.28148,1.9375 -0.70508,1.9375 1.8658,0 2.44549,3.31648 0.74609,4.26758 -1.1988,0.6708 -1.32138,1.22356 -0.49218,2.22266 0.7755,0.9347 0.78726,1.52588 0.0391,1.98828 -0.5857,0.3619 -0.76148,1.14714 -0.39258,1.74414 0.4004,0.6478 0.20473,0.79698 -0.48437,0.3711 -0.6349,-0.3924 -1.1543,-0.2629 -1.1543,0.2871 0,0.55 0.48086,1.29716 1.06836,1.66016 0.5877,0.3631 0.83137,1.27564 0.54297,2.02734 -0.5842,1.5224 0.93749,2.7691 3.62109,2.9668 2.0269,0.1494 2.2577,-0.6465 0.6543,-2.25 -2.7693,-2.7692 2.49388,-3.65704 5.89258,-0.99414 0.9085,0.7117 1.94185,0.37987 3.56445,-1.14453 1.2568,-1.1808 2.65427,-2.14844 3.10547,-2.14844 0.4513,0 -0.36525,0.93432 -1.81445,2.07422 -3.45671,2.719 -3.33571,3.96922 0.34179,3.54102 1.6369,-0.1906 2.76948,-0.013 2.51758,0.39453 -0.8904,1.4408 -5.43322,0.71513 -7.10742,-1.13477 -1.9013,-2.1009 -3.91521,-2.5579 -2.75391,-0.625 0.4969,0.8271 0.17066,0.77882 -0.96484,-0.14258 -0.9439,-0.7659 -1.9418,-1.16562 -2.2168,-0.89062 -0.275,0.275 0.16742,1.05211 0.98242,1.72851 1.2984,1.0775 1.25878,1.47073 -0.32422,3.16993 -1.2148,1.3035 -2.43078,1.70461 -3.70898,1.22461 -1.6982,-0.6376 -1.74993,-0.52837 -0.49023,1.01953 0.7922,0.9733 2.09285,1.47086 2.96875,1.13476 0.8576,-0.3291 1.19941,-0.23837 0.75781,0.20313 -0.4416,0.4416 -2.46956,0.80273 -4.50586,0.80273 -2.8273,0 -3.70313,-0.40424 -3.70313,-1.71094 0,-1.5792 0.13891,-1.58535 1.78711,-0.0937 0.9822,0.8889 1.78516,1.12234 1.78516,0.51954 0,-0.6028 -0.42827,-1.3604 -0.95117,-1.6836 -0.5232,-0.3231 -0.74464,-2.18853 -0.49414,-4.14453 0.3275,-2.5581 0.10172,-3.43721 -0.80078,-3.13281 -0.6901,0.2328 -1.25391,1.41119 -1.25391,2.61719 0,1.206 -0.50128,2.51465 -1.11328,2.91015 -1.1687,0.755 -1.24868,4.01694 -0.14258,5.80664 0.3574,0.5783 2.68172,0.9437 5.16602,0.8125 l 4.51757,-0.23828 -2.0332,2.16992 c -1.9136,2.0411 -2.11042,2.06437 -3.32422,0.41797 -1.6466,-2.2334 -2.98376,-2.26719 -2.13476,-0.0547 0.5701,1.4857 0.39977,1.46601 -1.39063,-0.15429 -2.0176,-1.8258 -2.03673,-1.81006 -1.67383,1.30664 0.422,3.6246 0.32728,3.70813 -1.79882,1.58203 -2.03731,-2.0373 -1.98757,-2.52244 0.17773,-1.71094 1.5325,0.5743 1.58071,0.44635 0.37891,-1.03125 -0.8859,-1.089 -0.97636,-1.68554 -0.25586,-1.68555 0.6973,0 0.94571,-1.33147 0.66211,-3.54687 -0.3199,-2.4984 -0.0247,-3.71237 1,-4.10547 0.8001,-0.307 1.20042,-0.96745 0.89062,-1.46875 -0.3099,-0.5013 -1.09464,-0.60311 -1.74414,-0.22461 -0.6495,0.3785 -0.36524,-0.2414 0.63086,-1.3789 1,-1.1375 1.4462,-2.26592 1,-2.50782 -0.4461,-0.2419 -0.25,-0.30432 0.4375,-0.13672 0.6875,0.1676 1.25,-0.0401 1.25,-0.46289 0,-0.4227 -0.5625,-1.33484 -1.25,-2.02734 -1.0022,-1.0097 -0.9031,-1.12785 0.5,-0.59375 1.677,0.6385 2.5501,-0.93388 1,-1.80078 -0.4125,-0.2303 -0.12262,-0.25805 0.64258,-0.0605 1.1317,0.292 1.15722,0.0773 0.13672,-1.15234 -0.6901,-0.8315 -1.54238,-1.33554 -1.89258,-1.11914 -0.3502,0.2164 -0.63672,-1.10616 -0.63672,-2.93946 0,-3.18 0.0864,-3.2557 1.85156,-1.6582 1.5375,1.391 1.81256,1.42229 1.63086,0.17969 -0.4372,-2.989 0.0403,-5.10007 1.01758,-4.4961 0.55,0.33993 1,0.1411 1,-0.4414 0,-1.6517 -1.78059,-1.2446 -3.02539,0.6914 -1.0716,1.6667 -1.09828,1.66671 -0.58008,0 0.6623,-2.12989 -0.94656,-2.359 -1.75586,-0.25 -0.3166,0.825 -1.07123,1.5 -1.67773,1.5 -0.6125,0 -0.41554,-0.68797 0.44336,-1.54687 0.9091,-0.909 1.40532,-2.7639 1.20312,-4.5 -0.1891,-1.6244 0.0737,-2.95313 0.58399,-2.95313 0.5103,0 0.64849,-0.45 0.30859,-1 -0.8654,-1.40019 0.84968,-1.25188 2.30078,0.19922 0.66,0.66 1.19922,0.90257 1.19922,0.53907 0,-0.3636 -0.92208,-1.52077 -2.05078,-2.57227 -1.7962,-1.6734 -1.85322,-1.98864 -0.44922,-2.52734 1.0593,-0.4065 1.36147,-0.22203 0.88867,0.54297 -0.4872,0.7882 -0.14941,0.94016 1.0586,0.47656 1.25659,-0.4807 1.62391,-0.28408 1.25781,0.66992 -0.2854,0.7437 -0.15233,1.94693 0.29687,2.67383 0.6614,1.0701 1.11683,1.02179 2.39063,-0.25196 0.8651,-0.86509 2.14254,-1.77463 2.83984,-2.02343 0.6974,-0.2488 0.93459,-0.8114 0.52539,-1.25 -0.4091,-0.4386 -1.57088,-0.05 -2.58008,0.86328 -3.3278,3.0116 -3.62389,1.72648 -0.34179,-1.48242 1.54682,-1.51227 3.06909,-2.56218 3.66211,-2.56446 z m 6.35156,4.0293 c 0.82099,0.0409 0.81158,0.27744 0.0527,0.75781 -1.7317,1.0964 -2.64614,1.14287 -3.24804,0.16797 -0.2547,-0.4125 0.6891,-0.81734 2.0957,-0.90234 0.46095,-0.0277 0.82595,-0.0371 1.09961,-0.0234 z m 1.36133,4.75 c 0.12954,0.004 0.23747,0.0422 0.31445,0.11914 0.3079,0.3079 -0.24622,0.86864 -1.23242,1.24414 -1.4252,0.5427 -1.54085,0.42707 -0.56055,-0.56055 0.50873,-0.51255 1.08989,-0.81416 1.47852,-0.80273 z m -16.21094,2.20117 c -2.0826,0.1568 -2.51496,0.8776 -1.27149,2.1211 0.40101,0.4011 0.89004,0.24795 1.08594,-0.33985 0.1959,-0.5875 0.76849,-0.81285 1.27149,-0.50195 0.5031,0.3109 0.91406,0.11656 0.91406,-0.43164 0,-0.5483 -0.9,-0.93066 -2,-0.84766 z m 17.11133,0.18946 c 0.3624,-0.0691 0.59101,0.45985 0.52539,1.29687 -0.0854,1.083 0.51846,1.68656 1.60156,1.60156 0.9565,-0.0754 1.47509,0.29296 1.15039,0.81836 -0.3247,0.5254 -1.27096,0.69576 -2.10156,0.37696 -1.0503,-0.403 -1.33309,-0.11956 -0.92969,0.93164 0.319,0.8312 0.36913,1.51173 0.11133,1.51171 -1.0731,10e-6 -1.54183,-5.83696 -0.51953,-6.46874 0.0568,-0.0351 0.11034,-0.0585 0.16211,-0.0684 z m -10.68555,4.04296 c 0.326,0.0427 0.82855,0.31729 1.4707,0.89844 1.2267,1.1102 2.08183,1.33346 2.42383,0.63086 0.3212,-0.6589 0.43707,-0.60865 0.29297,0.12695 -0.3415,1.7434 -1.99159,2.05922 -3.40039,0.65039 -1.36881,-1.36887 -1.5043,-2.40062 -0.78711,-2.30664 z m -1.89062,0.89063 c 0.10159,-0.0242 0.1945,-7.8e-4 0.27148,0.0762 0.3079,0.3079 -1.9e-4,1.11457 -0.68359,1.79297 -0.9876,0.9802 -1.1013,0.86465 -0.5586,-0.56055 0.28163,-0.73965 0.66593,-1.23612 0.97071,-1.30859 z m 15.88085,2.05664 c 0.23179,0.0465 0.27328,0.23776 0.0762,0.55664 -0.336,0.5437 -1.03328,0.99029 -1.55078,0.99023 -1.4384,0 -1.12118,-0.71801 0.61132,-1.38281 0.22248,-0.0854 0.41302,-0.13866 0.57032,-0.16211 0.11797,-0.0176 0.21574,-0.0174 0.29296,-0.002 z m -4.20507,0.61914 c 0.12954,0.004 0.23747,0.0422 0.31445,0.11914 0.3079,0.3079 -0.24622,0.86864 -1.23242,1.24414 -1.4252,0.5427 -1.54085,0.42707 -0.56055,-0.56055 0.50873,-0.51254 1.08989,-0.81416 1.47852,-0.80273 z m 12.00781,0.98242 c -0.0107,0.0107 0.005,0.0551 0.0156,0.0937 l 0.0137,-0.084 c -0.007,2.6e-4 -0.0254,-0.0136 -0.0293,-0.01 z m -23.69727,0.31836 c 0.20272,-0.0398 0.58644,0.30519 1.23438,0.95313 0.8859,0.8859 1.673,2.46917 1.75,3.51758 0.1025,1.39039 -0.51606,1.9063 -2.28906,1.90624 -1.3365,0 -1.97969,-0.28119 -1.42969,-0.625 0.5499,-0.3437 0.85413,-1.92707 0.67773,-3.51757 -0.16582,-1.49563 -0.204,-2.18315 0.0566,-2.23438 z m -5.02148,0.87695 c -2.0395,0 -2.31377,0.26982 -1.39649,1.375 0.62762,0.75631 1.25619,1.375 1.39649,1.375 0.1403,0 0.76888,-0.61868 1.39648,-1.375 0.9172,-1.10518 0.64312,-1.375 -1.39648,-1.375 z m 17.71094,5.82227 c 0.12954,0.004 0.23747,0.0422 0.31445,0.11914 0.3079,0.3079 -0.24622,0.86864 -1.23242,1.24414 -1.4252,0.5427 -1.54085,0.42707 -0.56055,-0.56055 0.50873,-0.51254 1.08989,-0.81416 1.47852,-0.80273 z m -11.08008,1.23438 c 3.1037,0 3.48562,0.2175 2.35742,1.3457 -1.5709,1.571 -2.88688,1.80159 -1.98828,0.34765 0.3399,-0.55 0.14109,-1 -0.44141,-1 -0.5824,0 -1.05859,0.40148 -1.05859,0.89258 0,0.4912 -0.57796,1.11532 -1.28516,1.38672 -0.7427,0.285 -1.28711,-0.23933 -1.28711,-1.24023 0,-1.3315 0.85703,-1.73242 3.70313,-1.73242 z m -2.13086,8.69335 c -0.55,0 -1,0.45002 -1,1 0,0.55003 0.45,1.00005 1,1 0.55,0 1,-0.45 1,-1 0,-0.55 -0.45,-1 -1,-1 z m 4.5,1 c 0.825,0 1.5,0.4762 1.5,1.0586 0,0.5825 -0.44458,0.78326 -0.98828,0.44726 -0.5669,-0.3504 -0.73408,0.0514 -0.39258,0.94141 0.3275,0.8535 1.02328,1.55279 1.54687,1.55273 0.52361,0 0.67389,-0.45 0.33399,-1 -0.3399,-0.55 -0.18836,-1 0.33594,-1 0.5243,0 0.88759,1.0663 0.80859,2.3711 -0.1009,1.6609 -0.59443,2.2043 -1.64453,1.8125 -1.2879,-0.4806 -1.30545,-0.3199 -0.12695,1.1289 0.9678,1.18981 1.02255,1.6875 0.18945,1.6875 -0.6502,10e-6 -0.93125,0.40214 -0.62695,0.89454 0.3043,0.4924 -0.21766,1.19103 -1.16016,1.55273 -0.943,0.3619 -1.39481,0.33817 -1.00391,-0.0527 0.391,-0.391 0.15155,-1.39914 -0.53125,-2.24024 -1.0309,-1.2701 -0.96483,-1.42677 0.38477,-0.92187 1.222,0.4571 1.625,0.004 1.625,-1.83008 0,-1.3414 -0.3937,-2.68297 -0.875,-2.98047 -1.4469,-0.8942 -0.9852,-3.42184 0.625,-3.42188 z m -6.5,7 c -0.55,0 -1,0.45002 -1,1 0,0.55003 0.45,1.00005 1,1 0.55,0 1,-0.45 1,-1 0,-0.55 -0.45,-1 -1,-1 z m 15.30859,1 c 0.5489,10e-6 -0.0133,0.87452 -1.24804,1.94532 -1.2346,1.0708 -1.95165,2.4208 -1.59375,3 0.358,0.5792 0.42539,1.05474 0.15039,1.05468 -0.275,0 -0.79495,-0.47985 -1.15625,-1.06445 -0.715,-1.1569 2.23115,-4.93554 3.84765,-4.93555 z m -204.73632,0.0371 c -1.85558,0.0761 -3.99431,0.57029 -5.13086,1.42969 -1.7879,1.3518 -1.68778,1.39763 1.26562,0.58203 1.7636,-0.487 4.1261,-0.64546 5.25,-0.35156 1.1569,0.3025 2.04297,0.0502 2.04297,-0.58203 0,-0.81275 -1.57217,-1.15426 -3.42773,-1.07813 z m 26.37695,1.13672 c -0.44406,-0.0131 -1.63548,1.76842 -3.33203,5.35157 -2.8041,5.9223 -3.39769,11.0255 -1.36719,11.7539 2.0846,0.7477 2.71413,-0.21431 2.11133,-3.22851 -0.3435,-1.7174 0.23234,-5.11474 1.43554,-8.46094 1.2927,-3.59495 1.59641,-5.40297 1.15235,-5.41602 z m -16.23047,2.03907 c -0.29407,0.0752 -0.96433,0.7124 -2.00391,1.9746 -1.2178,1.4785 -3.50553,2.85851 -5.08203,3.06641 -1.7456,0.2302 -3.39384,1.3304 -4.21484,2.8125 -0.7414,1.3386 -1.41981,1.87111 -1.50781,1.18359 -0.0883,-0.6875 -0.21616,-1.77626 -0.28516,-2.41796 -0.23,-2.1468 -2.625,-2.06982 -2.625,0.084 0,1.1458 -0.40138,2.08404 -0.89258,2.08398 -1.1021,0 -2.10742,-2.48287 -2.10742,-5.20507 0,-1.7549 -0.2236,-1.8555 -1.5957,-0.7168 -2.0026,1.662 -1.148,8.42666 1.4414,11.41016 0.96,1.1061 2.36374,3.24921 3.11914,4.76171 1.4558,2.915 4.70121,3.77801 4.70117,1.25 0,-0.82497 -0.37373,-1.49995 -0.83203,-1.5 -0.4584,0 -0.83398,-0.52626 -0.83398,-1.16796 0,-0.6416 0.2963,-0.86972 0.6582,-0.50782 0.3619,0.3619 1.2616,0.15577 2,-0.45703 1.062,-0.8814 1.4727,-0.46073 1.9668,2.00977 0.3781,1.8909 1.2661,3.16265 2.25,3.22265 0.9269,0.0568 0.551,0.44291 -0.875,0.90039 -1.3845,0.44421 10.56811,0.83219 26.78711,0.86719 18.5833,0.0402 29.06991,-0.28984 28.6914,-0.90234 -0.3281,-0.5308 -1.2446,-0.96481 -2.0371,-0.96485 -0.7926,0 -1.44141,-0.45 -1.44141,-1 0,-0.54998 -0.675,-1 -1.5,-1 -1.5825,0 -1.87788,-1.98891 -0.85938,-5.79101 0.9156,-3.4183 2.6017,-2.14736 3.0586,2.30664 0.2211,2.1546 0.55403,4.06976 0.74023,4.25586 0.1861,0.1862 1.56882,-0.80207 3.07422,-2.19727 2.5133,-2.3292 5.29056,-2.68576 3.94336,-0.50586 -0.3165,0.512 0.12688,0.93166 0.98438,0.93164 1.1212,1e-5 1.57976,-1.05299 1.63476,-3.75 0.0421,-2.06249 0.22781,-4.53749 0.41211,-5.5 0.1843,-0.96249 -0.0749,-1.74999 -0.57617,-1.75 -0.5013,0 -0.91211,0.53355 -0.91211,1.18555 0,1.6489 -4.06473,5.81445 -5.67383,5.81445 -0.7292,0 -1.36034,-1.0125 -1.40234,-2.25 -0.1011,-2.989 -2.39593,-9.25 -3.39063,-9.25 -0.4339,0 -0.89759,1.36907 -1.02929,3.04297 -0.1316,1.6739 -1.00566,4.52665 -1.94336,6.33985 -0.9376,1.8133 -1.46844,3.91808 -1.17774,4.67578 0.2908,0.7578 0.15155,1.61078 -0.31054,1.89648 -1.60761,0.9935 -3.23751,-5.06877 -2.44141,-9.08008 0.4232,-2.132 0.67505,-4.36731 0.56055,-4.96874 -0.1146,-0.6016 0.80898,-1.5848 2.05078,-2.1836 2.0916,-1.0084 2.11041,-1.09081 0.25781,-1.13281 -2.7979,-0.0636 -5.97034,2.71346 -8.46484,7.41015 -1.1684,2.2 -2.83358,5.01252 -3.70118,6.25 -0.9024,1.28702 -1.11916,2.25 -0.50586,2.25 0.5898,0 1.51078,-0.78428 2.04688,-1.74218 1.0885,-1.945 2.39124,-1.18574 2.58984,1.50976 0.0716,0.9719 0.47173,2.3222 0.89063,3 0.519,0.8396 0.0262,1.2361 -1.54688,1.2461 -1.27,0.007 -3.43359,0.2888 -4.80859,0.625 -2.4343,0.5953 -2.4474,0.57026 -0.5,-0.96094 1.8402,-1.447 1.6805,-1.46519 -2,-0.21289 l -4,1.36133 -0.80664,-3.02344 c -0.4439,-1.6627 -0.5564,-3.27378 -0.25,-3.58008 0.3063,-0.3064 0.55664,0.14611 0.55664,1.00391 0,1.4582 1.94802,2.77345 4.10742,2.77343 0.5192,0 0.21512,-1.40981 -0.67578,-3.13281 -1.1467,-2.2174 -1.29546,-3.33426 -0.50586,-3.82226 0.6135,-0.3792 2.0073,-3.12592 3.0957,-6.10352 2.2696,-6.2094 2.21402,-5.94141 1.22852,-5.94141 -0.4125,6.1e-4 -2.03698,2.2923 -3.60938,5.0918 -2.8883,5.1423 -4.19524,5.41063 -4.80664,0.98633 -0.1841,-1.3319 -0.90059,-2.60824 -1.59179,-2.83594 -1.5079,-0.4966 -1.19378,2.25545 0.63672,5.58985 1.0765,1.961 1.02887,2.61297 -0.29883,4.08007 -0.8689,0.9601 -1.61716,2.83432 -1.66016,4.16602 -0.0434,1.3315 -0.28897,1.90644 -0.54687,1.27734 -0.258,-0.6334 -1.34818,-0.91361 -2.42188,-0.63281 -2.2936,0.5998 -2.62577,2.27738 -0.45117,2.27734 0.825,0 1.5,0.48006 1.5,1.06836 0,0.5882 -1.0125,0.9257 -2.25,0.75 -1.5969,-0.2268 -2.16936,-0.89895 -1.97266,-2.31836 0.2733,-1.97059 0.25581,-1.97295 -1.24609,-0.0644 -1.649,2.0957 -1.64993,2.68765 -0.0156,-10.93555 l 0.48047,-4 -2.10156,2.48829 c -1.6951,2.0071 -1.98742,3.32061 -1.51172,6.79101 0.426,3.1076 0.24652,4.25758 -0.64648,4.14258 -2.6941,-0.3468 -3.73946,0.15454 -3.81446,1.82812 -0.0551,1.22011 -0.24309,1.33722 -0.62109,0.38672 -0.4577,-1.1508 -0.67715,-1.1508 -1.40625,0 -0.6324,0.9983 -0.86791,1.02868 -0.87891,0.11328 -0.008,-0.6875 -0.69965,-1.25 -1.53515,-1.25 -1.1499,0 -1.35883,-0.6684 -0.86133,-2.75 0.8783,-3.67439 1.26233,-4.25 2.83203,-4.25 0.733,0 1.63097,1.19004 1.9961,2.64454 0.50659,2.0188 0.93923,2.36741 1.83203,1.47461 0.8928,-0.8928 0.85116,-1.68214 -0.18164,-3.33594 -1.2199,-1.9534 -1.08483,-2.39769 1.38867,-4.52539 2.9925,-2.574 2.84045,-4.03962 -0.24805,-2.38672 -1.3528,0.7236 -2.2608,0.706 -3.0293,-0.0625 -0.7971,-0.7972 -1.27982,-0.37343 -1.76171,1.54687 -0.3651,1.4545 -1.06625,2.64453 -1.55665,2.64453 -1.525,0 -0.97371,-3.35249 1.11329,-6.77539 1.64756,-2.70225 2.20496,-4.13706 1.71484,-4.01171 z m 158.16406,0.9746 c -0.53309,0.11069 -2.76799,3.36192 -4.40625,6.51954 -1.4503,2.7955 -1.34605,2.87511 -2.96875,-2.27149 -1.1154,-3.5375 -2.20395,-0.18812 -1.37695,4.23828 0.5642,3.0203 0.5197,5.07395 -0.125,5.71875 -0.5534,0.5533 -1.00586,1.62361 -1.00586,2.37891 0,2.2383 3.47175,0.90726 3.81055,-1.46094 0.1705,-1.1919 0.93449,-2.68571 1.69922,-3.32031 1.12319,-0.9322 1.55322,-0.52673 2.23632,2.10937 0.9367,3.6148 3.25391,5.15286 3.25391,2.16016 0,-1.0479 -0.70621,-3.97962 -1.57031,-6.51562 -1.1732,-3.4433 -1.2999,-5.11879 -0.5,-6.61329 0.5891,-1.1008 1.07031,-2.35546 1.07031,-2.78906 0,-0.1218 -0.041,-0.1701 -0.11719,-0.1543 z m 30.54688,0.16211 c 0.0228,-0.005 0.0487,0.002 0.0781,0.0195 0.14124,0.086 0.3614,0.43298 0.6875,1.01562 0.5583,0.9977 0.6297,2.18926 0.1582,2.66016 -0.4712,0.4706 -0.92471,-0.33874 -1.01171,-1.80664 -0.074,-1.25076 -0.0716,-1.85359 0.0879,-1.88868 z m -17.72266,1.25 c 0.334,-0.0396 0.60864,0.10229 0.80859,0.42579 0.342,0.5535 1.03532,0.75 1.54102,0.4375 0.5057,-0.3126 0.64735,0.14216 0.31445,1.00976 -0.4994,1.3014 -0.88018,1.35504 -2.17578,0.30274 -1.3332,-1.0828 -1.47086,-1.01097 -0.91406,0.4746 0.771,2.05733 0.36981,2.24682 -1.05859,0.5 -0.713,-0.8718 -0.61509,-1.62543 0.32421,-2.49023 0.43295,-0.39865 0.82616,-0.62052 1.16016,-0.66016 z m -138.52148,1.39844 c -0.731,0 -3.32098,4.46938 -5.38868,9.30078 -1.3776,3.2189 0.93913,0.82449 3.60743,-3.72851 2.7875,-4.7565 3.04915,-5.57227 1.78125,-5.57227 z m 55.35156,1.20313 c -0.0656,0.0167 -0.12789,0.0556 -0.1875,0.11523 -0.2686,0.2686 0.10448,2.44299 0.83008,4.83399 1.1729,3.8648 1.35571,4.04913 1.63281,1.64843 0.28753,-2.49159 -1.29122,-6.84883 -2.27539,-6.59765 z m -51.00195,0.19531 c 0.10159,-0.0242 0.1945,-7.8e-4 0.27148,0.0762 0.3079,0.3079 -1.9e-4,1.11457 -0.68359,1.79297 -0.9876,0.9802 -1.1013,0.86465 -0.5586,-0.56055 0.28163,-0.73965 0.66593,-1.23612 0.97071,-1.30859 z m 132.1914,1.94531 c 0.23693,-0.0258 0.46503,0.15923 0.70703,0.55078 0.3762,0.6088 0.15371,1.10742 -0.49609,1.10742 -0.8808,0 -0.8652,0.38222 0.0625,1.5 0.7175,0.8646 0.81577,1.5 0.23047,1.5 -1.4224,10e-6 -2.19922,-2.43241 -1.26172,-3.94921 0.2768,-0.44795 0.52089,-0.68324 0.75781,-0.70899 z m -152.62695,1.69727 c -0.24673,0.0134 -0.59258,0.14562 -1.0332,0.41797 -0.5866,0.3625 -1.05216,1.41961 -1.03516,2.34961 0.028,1.4847 0.21023,1.45752 1.49023,-0.23438 1.1661,-1.54132 1.31833,-2.57347 0.57813,-2.5332 z m 127.90039,0.95898 c -1.0973,0 -1.35678,4.90537 -0.39258,7.41797 0.3339,0.87 1.05547,1.58203 1.60547,1.58203 0.55,0 0.72843,-0.71203 0.39453,-1.58203 -0.3338,-0.87 -0.60742,-2.895 -0.60742,-4.5 0,-1.605 -0.45,-2.91797 -1,-2.91797 z m -80.91016,0.39453 c -0.20559,-0.0249 -0.45922,-0.0152 -0.76172,0.0293 -1.2781,0.188 -1.84023,1.14075 -1.86523,3.17188 -0.02,1.5972 -0.38369,3.46689 -0.80859,4.15429 -0.4249,0.6875 -0.33358,1.25 0.20312,1.25 0.5366,0 1.16509,-0.5625 1.39649,-1.25 0.3267,-0.9708 0.79742,-0.93882 2.10742,0.14258 2.3484,1.9387 2.82383,1.01795 1.14453,-2.21875 -0.7805,-1.5044 -1.17857,-3.36135 -0.88477,-4.12695 0.2652,-0.69128 0.0855,-1.07757 -0.53125,-1.15235 z m 32.88477,0.10742 -0.0566,3.5 c -0.0784,4.70881 -1.06377,6.63859 -3.16797,6.20899 -2.1875,-0.4467 -2.22442,-0.17482 0.73828,-5.35742 l 2.48633,-4.35157 z m -14.24805,1.20899 0,3.97851 c 0,2.69282 -0.44028,3.97852 -1.36328,3.97852 -2.9311,0 -3.11502,-2.1335 -0.47851,-5.5625 l 1.84179,-2.39453 z m 19.47852,2.71289 c 0.46282,-0.0542 0.79492,0.7476 0.79492,2.01758 0,1.4074 -0.45,2.5606 -1,2.56054 -0.55,0 -1,-0.8738 -1,-1.9414 0,-1.0675 0.45,-2.2187 1,-2.5586 0.0709,-0.0438 0.13896,-0.0704 0.20508,-0.0781 z m 6.78711,0.51172 c 0.66753,0.12475 1.97643,2.50772 1.99218,3.875 0.008,0.72 -0.43437,1.03132 -0.98437,0.6914 -0.55,-0.33987 -1,-0.0138 -1,0.72657 0,0.7404 -0.9,1.41504 -2,1.49804 -1.1,0.0829 -2,-0.0622 -2,-0.32226 0,-0.4054 2.68395,-4.9659 3.75195,-6.375 0.0636,-0.0839 0.14487,-0.11157 0.24024,-0.0937 z m -33.75782,0.19726 c 0.15268,0.005 0.28245,0.052 0.38086,0.1504 0.3116,0.31199 0.29414,1.42676 -0.0391,2.47656 -0.6617,2.0847 -3.57617,2.65286 -3.57617,0.69726 0,-1.29368 2.16563,-3.35627 3.23437,-3.32422 z m 117.41993,0.73633 c 0.23189,-0.0296 0.3457,0.15577 0.3457,0.55469 0,0.8672 -0.45,1.57814 -1,1.57812 -0.55,0 -1,0.38568 -1,0.85938 0,0.4735 1.125,0.64757 2.5,0.38477 1.4594,-0.279 2.5,-0.0131 2.5,0.63867 0,0.6141 -1.08797,1.11718 -2.41797,1.11718 -1.33,0 -3.13,0.27157 -4,0.60547 -2.2586,0.8667 -1.95923,-0.36966 0.91797,-3.78906 1.05425,-1.25281 1.7678,-1.89987 2.1543,-1.94922 z m -197.74805,1.13281 c 0.4985,0 0.67041,0.90001 0.38281,2 -0.2877,1.10001 -0.69545,2.00001 -0.90625,2 -0.2109,10e-6 -0.38281,-0.89998 -0.38281,-2 0,-1.1 0.40775,-1.99999 0.90625,-2 z m 41.98828,0.0527 c 0.56942,0.0728 1.0779,0.73656 1.39453,1.94726 0.5664,2.16621 -0.0149,2.45941 -2.16797,1.09571 -0.758,-0.4801 -1.06735,-1.37288 -0.68945,-1.98438 0.39548,-0.6399 0.81444,-0.98644 1.21484,-1.05273 0.0834,-0.0138 0.16671,-0.0163 0.24805,-0.006 z m 32.74024,2.2832 c 0.22236,0.0463 0.36523,0.23555 0.36523,0.54492 0,0.55 -0.45,1.27927 -1,1.61914 -0.55,0.3399 -1,0.16719 -1,-0.38281 0,-0.55 0.45,-1.27729 1,-1.61719 0.1375,-0.085 0.26914,-0.13902 0.38867,-0.1621 0.0897,-0.0173 0.17194,-0.0174 0.2461,-0.002 z m -9.11133,1.73633 c -0.39436,-10e-4 -0.39774,0.32103 -0.006,0.95508 0.5858,0.9478 0.22637,1.13787 -1.36133,0.72265 -1.186,-0.31009 -2.15625,-0.1567 -2.15625,0.3418 0,0.4985 1.38808,0.9082 3.08398,0.9082 3.0753,10e-6 3.72515,-1.89835 0.96485,-2.81835 -0.21783,-0.0726 -0.39394,-0.10893 -0.52539,-0.10938 z m 146.61133,1.68359 c -0.0881,0.0671 -0.13477,0.14188 -0.13477,0.22461 0,0.0703 0.0713,0.13741 0.18945,0.20118 l -0.0547,-0.42579 z m -222.26172,0.36133 c -0.90625,-0.003 -1.84938,0.0531 -2.60938,0.16797 -1.5201,0.2299 -0.51367,0.42164 2.23633,0.43164 2.7498,0.007 3.99357,-0.18067 2.76367,-0.41797 -0.615,-0.11885 -1.48437,-0.17913 -2.39062,-0.18164 z"
       id="path4160-1"
       inkscape:connector-curvature="0" />
  </g>
</svg>
